<svg width="29" height="15" viewBox="0 0 29 15" fill="none" xmlns="http://www.w3.org/2000/svg">
<rect width="29" height="15" fill="#1D1D1D"/>
<g id="&#225;&#131;&#161;&#225;&#131;&#162;&#225;&#131;&#163;&#225;&#131;&#147;&#225;&#131;&#148;&#225;&#131;&#156;&#225;&#131;&#162;&#225;&#131;&#152;&#225;&#131;&#161; &#225;&#131;&#158;&#225;&#131;&#160;&#225;&#131;&#157;&#225;&#131;&#164;&#225;&#131;&#152;&#225;&#131;&#154;&#225;&#131;&#152; (&#225;&#131;&#161;&#225;&#131;&#162;&#225;&#131;&#163;&#225;&#131;&#147;&#225;&#131;&#148;&#225;&#131;&#156;&#225;&#131;&#162; &#225;&#131;&#149;&#225;&#131;&#152;&#225;&#131;&#163;)" clip-path="url(#clip0_6387_2)">
<rect width="1920" height="1080" transform="translate(-25 -28)" fill="#060A10"/>
<g id="Sidebar - Open">
<mask id="path-1-inside-1_6387_2" fill="white">
<path d="M-25 -28H231V1052H-25V-28Z"/>
</mask>
<path d="M-25 -28H231V1052H-25V-28Z" fill="#0E1116"/>
<path d="M230 -28V1052H232V-28H230Z" fill="white" fill-opacity="0.1" mask="url(#path-1-inside-1_6387_2)"/>
<g id="Frame 21026786">
<g id="Frame 21026784">
<g id="Frame 33686">
<rect x="-5" y="-12" width="40" height="40" rx="8" fill="white"/>
<g id="Intel_logo_(2006-2020) 1">
<g id="g4421">
<path id="path4425" d="M23.9868 4.15084C23.9868 4.09056 23.9516 4.07141 23.8712 4.07141H23.7935V4.24201C23.8048 4.24201 23.8612 4.24409 23.8712 4.24409C23.9516 4.24409 23.9868 4.21721 23.9868 4.16079V4.15085V4.15084ZM24.108 4.57386H24.0159C24.0076 4.57386 24.0003 4.56866 23.9968 4.56169L23.8712 4.34877C23.8689 4.34447 23.8581 4.33926 23.8538 4.33926H23.7974V4.5504C23.7974 4.56169 23.7896 4.57386 23.7748 4.57386H23.6915C23.6811 4.57386 23.6707 4.56169 23.6707 4.5504V4.01632C23.6707 3.98544 23.6827 3.97252 23.7089 3.96851C23.7383 3.96465 23.8181 3.96198 23.8612 3.96198C24.0141 3.96198 24.1066 4.00712 24.1066 4.15084V4.16079C24.1066 4.24973 24.0624 4.29665 23.9938 4.31966L24.124 4.53986C24.1248 4.54431 24.1279 4.5504 24.1279 4.5556C24.1279 4.56421 24.1227 4.57386 24.108 4.57386L24.108 4.57386ZM23.8894 3.86561C23.6628 3.86561 23.4796 4.05269 23.4796 4.27794C23.4796 4.50348 23.6628 4.68759 23.8894 4.68759C24.1148 4.68759 24.2998 4.50348 24.2998 4.27794C24.2998 4.05269 24.1148 3.86561 23.8894 3.86561ZM23.8894 4.77252C23.6141 4.77252 23.3945 4.5504 23.3945 4.27794C23.3945 4.00592 23.6141 3.7832 23.8894 3.7832C24.1617 3.7832 24.3855 4.00592 24.3855 4.27794C24.3855 4.5504 24.1617 4.77252 23.8894 4.77252Z" fill="#0071C5"/>
</g>
</g>
</g>
<g id="Frame" clip-path="url(#clip1_6387_2)">
<g id="Group">
<path id="Vector" d="M8.86361 14.5797C8.62309 14.5797 8.39812 14.4748 8.2466 14.2919C8.09518 14.1093 8.03772 13.873 8.08891 13.6438C8.24843 12.9274 8.49295 11.9604 8.77418 11.2976C8.59112 11.3544 8.40233 11.3652 8.21981 11.3652C8.18795 11.3652 8.15382 11.3649 8.11581 11.3642C7.98243 11.3642 7.85358 11.3619 7.73294 11.3577C7.58887 11.3526 7.45084 11.3202 7.32502 11.2648C7.30774 11.3761 7.25331 11.4799 7.1682 11.5597C6.9886 11.7271 6.70596 11.9551 6.37029 12.0999C5.88536 12.341 5.44374 12.4317 5.36101 12.4472C4.93797 12.5421 4.44646 12.5902 3.90008 12.5902C3.3537 12.5902 2.97742 12.5437 2.96112 12.5418C2.73798 12.5148 2.57339 12.3259 2.58279 12.1074C2.58786 11.9883 2.59737 11.8736 2.6086 11.7695C1.75798 11.6828 0.768362 11.3477 0.720626 11.3314C0.572448 11.2807 0.464122 11.1559 0.43777 11.0053C0.411418 10.8546 0.47125 10.7019 0.59394 10.6065C1.15382 10.1712 1.54046 9.69586 1.75787 9.38961C1.53668 9.22655 1.38105 9.07452 1.37133 9.06496C1.28429 8.97934 1.23914 8.86156 1.24735 8.74137C1.25556 8.62118 1.31647 8.51023 1.41443 8.43669L2.51043 7.61373C3.55815 6.80328 4.4673 6.63318 5.04576 6.63318C5.36933 6.63318 5.60553 6.68687 5.71839 6.71912C5.82639 6.74959 5.92025 6.81589 5.98375 6.90498C6.07793 6.77502 6.19975 6.66281 6.34091 6.57676C6.61005 6.41276 6.70822 6.34247 6.81234 6.26809C6.86925 6.22733 6.92801 6.18541 7.01203 6.12941C6.7147 5.89165 6.45421 5.67932 6.22211 5.4901C5.84724 5.18447 5.52356 4.92056 5.15311 4.63636C4.92015 4.45828 4.80869 4.25677 4.82252 4.03772C4.82976 3.92236 4.883 3.70456 5.15819 3.54266C5.535 3.32098 5.83536 3.17347 6.16919 3.02102C6.69246 2.75963 7.43 2.4062 7.98707 2.19923C8.10166 2.15678 8.22143 2.13535 8.34326 2.13535C8.67072 2.13535 8.98057 2.29504 9.16418 2.55539C9.20554 2.5452 9.24842 2.53994 9.29173 2.53994C9.36009 2.53994 9.42856 2.55318 9.49239 2.5785C9.50773 2.58417 9.52285 2.59079 9.53765 2.59825L10.5766 3.12262C10.6601 3.16465 10.7287 3.22579 10.7779 3.29923C10.9416 3.30301 11.1094 3.34819 11.277 3.43361C11.621 3.60885 11.893 3.77296 12.1184 3.9419C12.191 3.69017 12.3442 3.44149 12.6654 3.25742C12.9343 3.10318 13.8596 2.59951 14.47 2.59951C14.555 2.59951 14.635 2.60886 14.7079 2.62736C14.7522 2.6386 14.7952 2.65131 14.837 2.6657C14.8937 2.44213 15.0445 2.25711 15.2515 2.15773C15.7543 1.91556 16.5115 1.63336 17.1353 1.45559C17.2158 1.43269 17.2984 1.42103 17.3808 1.42103C17.5664 1.42103 17.7413 1.47986 17.8837 1.58545C17.9467 1.46116 18.0374 1.34181 18.1658 1.2358C18.4387 1.01034 18.8037 0.896134 19.3818 0.76449C19.5554 0.724882 19.7206 0.704815 19.8724 0.704815C20.1662 0.704815 20.3904 0.779514 20.5578 0.877012C20.5716 0.857261 20.5861 0.837929 20.6012 0.819123C20.7816 0.595129 21.039 0.459178 21.3264 0.43617C21.4691 0.424823 21.6141 0.423562 21.7543 0.422406C21.8081 0.421986 21.8589 0.421566 21.9083 0.42062C21.915 0.420515 21.9212 0.42041 21.9275 0.42041C22.1292 0.42041 22.3248 0.482187 22.4909 0.590296C22.622 0.525263 22.7901 0.493534 23.0024 0.493534C23.1338 0.493534 23.2847 0.505826 23.4508 0.530201C23.6676 0.562035 23.8614 0.634633 24.0291 0.746419C24.1078 0.707336 24.1961 0.685693 24.288 0.685693C24.3109 0.685693 24.3341 0.687059 24.3568 0.689686C24.3654 0.690736 24.3666 0.690631 24.3739 0.691997C24.3748 0.692102 24.3796 0.692627 24.3809 0.692838C24.4042 0.695674 24.6551 0.73812 24.9301 0.801157C25.4768 0.926287 25.6685 1.02725 25.7745 1.10122C25.8779 1.1735 25.9505 1.26469 26.0014 1.36188C26.1163 1.30672 26.2476 1.27772 26.3885 1.27772C26.4836 1.27772 26.5835 1.29096 26.6852 1.31701C27.2867 1.47083 27.721 1.67654 28.0084 1.81259C28.0739 1.84369 28.1306 1.87048 28.1798 1.89223C28.1827 1.89349 28.1855 1.89486 28.1883 1.89612C28.3531 1.97155 28.4795 2.11097 28.5356 2.27981C28.5926 2.45106 28.5728 2.63881 28.4812 2.79514C28.3875 2.95536 28.2739 3.13544 28.1243 3.36164C28.0631 3.45388 27.98 3.5269 27.8837 3.57586C27.8668 3.69826 27.8209 3.81614 27.7483 3.92047C27.6736 4.02784 27.5928 4.13973 27.5013 4.26245C27.4077 4.38789 27.2756 4.47299 27.1261 4.50735C27.1053 4.69268 27.0288 4.87013 26.9021 5.01879C26.7334 5.21673 26.5442 5.42675 26.415 5.56806C26.3558 5.63309 26.2835 5.68436 26.2035 5.71945C26.1767 5.81233 26.1281 5.89985 26.0588 5.9735C25.8111 6.23657 25.477 6.57739 25.2904 6.70851C25.29 6.70883 25.2895 6.70914 25.289 6.70946C25.2074 6.7664 25.114 6.80013 25.0168 6.80832C24.9324 6.96571 24.8162 7.10628 24.6733 7.22006C24.4867 7.36862 24.0985 7.6629 23.5951 7.96443C23.4751 8.0364 23.3386 8.07454 23.2005 8.07454C23.1014 8.07454 23.0035 8.05457 22.9124 8.01749C22.8004 8.27552 22.5898 8.48449 22.316 8.59292C22.0275 8.70701 21.6301 8.852 21.1349 9.02378C21.0692 9.04658 21.0011 9.05824 20.9329 9.05824C20.7961 9.05824 20.6674 9.01275 20.5629 8.9288C20.2935 9.19503 19.952 9.3958 19.5888 9.4994C19.1545 9.62348 18.6915 9.74797 18.3795 9.83055C18.2876 9.85503 18.1929 9.86743 18.0983 9.86743C17.8519 9.86743 17.615 9.78422 17.4205 9.63125C17.3078 9.78769 17.1637 9.92122 16.9888 10.0308C16.6772 10.226 16.34 10.297 16.1169 10.344C16.0887 10.3499 16.0621 10.3556 16.0376 10.361C16.009 10.3674 15.9743 10.3758 15.9375 10.3848C15.7411 10.4324 15.4721 10.4976 15.1849 10.4976C15.1029 10.4976 15.024 10.4921 14.9485 10.4811C14.8776 10.5602 14.781 10.6171 14.6698 10.6406C14.5164 10.6731 14.1744 10.736 14.0753 10.7509C14.0452 10.7554 14.015 10.7577 13.9853 10.7577C13.9834 10.7577 13.9816 10.7577 13.9797 10.7577C13.6399 11.628 13.2062 12.5445 12.6568 13.4141C12.4338 13.7669 12.0835 14.0181 11.6704 14.1216C11.0821 14.2689 10.1307 14.4674 8.93889 14.5767C8.91383 14.579 8.88856 14.5801 8.86361 14.5801V14.5797ZM5.41426 10.7445C5.49699 10.7546 5.57453 10.7593 5.65316 10.7593C5.77228 10.7593 5.90297 10.7482 6.06335 10.7244C6.18399 10.6969 6.31791 10.6539 6.46155 10.5964C6.46187 10.5963 6.46231 10.596 6.46263 10.5959C6.52667 10.5705 6.59428 10.5576 6.6634 10.5576C6.67744 10.5576 6.69138 10.5581 6.70531 10.5592C6.27114 9.60709 6.02242 8.72057 5.90955 8.26018C5.9088 8.25703 5.90804 8.25398 5.90739 8.25083C5.86409 8.08126 5.80458 7.81451 5.78805 7.73371C5.73513 7.76828 5.67573 7.79391 5.61179 7.80883C5.13248 7.92083 4.78634 8.17235 4.57336 8.37386C4.57703 8.37701 4.5806 8.38027 4.58416 8.38353C4.80772 8.5822 4.86324 8.90275 4.71873 9.16257C4.57487 9.42207 4.38868 9.69103 4.23164 9.90326C4.46244 9.98605 4.66009 10.0157 4.80059 10.0245C4.99381 10.0369 5.17082 10.1302 5.28682 10.2804C5.38996 10.4141 5.4351 10.5804 5.41437 10.7445H5.41426ZM11.3448 10.4611C11.3527 10.522 11.3583 10.5826 11.3602 10.6422C11.3634 10.641 11.3666 10.6397 11.37 10.6386C11.4242 10.6184 11.506 10.5598 11.6073 10.4479C11.5115 10.4561 11.4241 10.4609 11.3448 10.461V10.4611ZM8.77343 7.38196C8.80367 7.38732 8.8338 7.39363 8.86404 7.40067C8.90184 7.40949 8.93889 7.42052 8.97496 7.43345C8.97604 7.38302 8.97755 7.33458 8.97928 7.28835C8.97971 7.27869 8.98036 7.26892 8.98144 7.25936C8.98165 7.25337 8.98198 7.24748 8.98219 7.2415C8.97593 7.24559 8.96967 7.2498 8.96351 7.25389C8.89709 7.29781 8.83412 7.33941 8.77343 7.38196ZM15.0146 7.08747C15.0122 7.1066 15.0098 7.12603 15.0069 7.14568C15.0201 7.14505 15.0331 7.14452 15.046 7.144C15.0355 7.1254 15.025 7.1066 15.0145 7.08747H15.0146ZM18.7841 6.91065C18.7867 6.924 18.7895 6.93408 18.792 6.94165C18.7993 6.94154 18.806 6.94081 18.8105 6.94018C18.8111 6.93997 18.8113 6.93997 18.8114 6.93997C18.8115 6.93997 18.8114 6.93997 18.8117 6.93997C18.8117 6.93997 18.8129 6.93986 18.8133 6.93976C18.8143 6.93955 18.8159 6.93923 18.8184 6.9386C18.8588 6.92893 18.9199 6.91433 18.9597 6.76283C18.9947 6.62982 18.9972 6.44491 18.967 6.22764C18.9074 6.19181 18.8517 6.15357 18.7998 6.11365C18.7978 6.1603 18.7957 6.20526 18.7938 6.24834C18.7811 6.52928 18.7709 6.75295 18.7841 6.91055V6.91065ZM22.789 5.49693C22.7973 5.54095 22.8056 5.58571 22.8139 5.63141C22.8237 5.58602 22.8333 5.54074 22.8427 5.49567C22.825 5.4963 22.807 5.49672 22.789 5.49704V5.49693Z" fill="white"/>
<path id="Vector_2" d="M21.9277 0.840501C22.1669 0.840501 22.3907 0.994418 22.4859 1.21641C22.4872 1.21904 22.4886 1.22188 22.4896 1.22482C22.4896 1.22482 22.5328 1.05514 22.6716 0.97309C22.7321 0.937054 22.8399 0.91373 23.0026 0.91373C23.1073 0.91373 23.2347 0.923395 23.3868 0.945669C23.7515 0.999251 23.9996 1.21032 24.1222 1.52173L24.1218 1.52204V1.52267C24.2454 1.83607 24.3965 2.29845 24.5135 2.90582C24.7148 3.95172 24.7865 5.37143 24.7417 6.2299C24.7281 6.49066 24.6034 6.73262 24.4002 6.89452C24.1676 7.07964 23.7989 7.34881 23.3691 7.60632C23.3142 7.63921 23.2568 7.65402 23.201 7.65402C23.0018 7.65402 22.8262 7.46501 22.8802 7.24134C23.0555 6.51399 23.3352 5.40064 23.4319 4.63652C23.5593 3.62897 23.5224 3.32134 23.3956 3.32134C23.3757 3.32134 23.3534 3.32901 23.3292 3.34278C23.1661 3.43586 23.3804 3.95056 23.2774 4.81512C23.2635 4.93174 23.1778 5.02672 23.0634 5.04931C22.9865 5.06475 22.8852 5.07694 22.7577 5.07694C22.72 5.07694 22.6799 5.07589 22.6376 5.07347C22.4964 5.06538 22.3835 4.95066 22.3755 4.80819C22.3586 4.51685 22.3801 4.05552 22.233 4.05552C22.2172 4.05552 22.1996 4.06078 22.1798 4.07212C21.9303 4.21469 22.5821 5.71509 22.5707 7.58752C22.5688 7.85963 22.4046 8.1039 22.1535 8.20339C21.8283 8.33199 21.4038 8.48412 20.9902 8.62764C20.9706 8.63447 20.9515 8.63762 20.9332 8.63762C20.8299 8.63762 20.7549 8.53539 20.7656 8.41699C20.8247 7.78272 20.9858 6.73882 21.0005 5.21247C21.0138 3.82344 20.9716 2.81021 20.7932 1.73595C20.7161 1.27199 20.969 0.886203 21.3615 0.854895C21.5395 0.840711 21.7359 0.844178 21.9169 0.840711C21.9203 0.840711 21.9238 0.840711 21.9273 0.840711M24.288 1.1061C24.2936 1.1061 24.2992 1.10641 24.3048 1.10704C24.3048 1.10704 24.3128 1.10831 24.327 1.10999C24.3297 1.1103 25.2697 1.26632 25.5225 1.44282C25.8746 1.68867 25.5521 2.73625 25.5148 3.20052C25.5427 3.17342 25.6129 3.10008 25.643 3.07613C25.7323 3.00574 25.837 2.97327 25.9404 2.97327C26.1342 2.97327 26.3233 3.08769 26.3961 3.28195L26.3968 3.28132L26.3974 3.28037C26.5306 3.63611 26.634 4.03703 26.6884 4.29359C26.7226 4.45518 26.6788 4.62255 26.5695 4.75072C26.415 4.93195 26.235 5.13262 26.0921 5.28906C26.0523 5.33298 25.9987 5.35315 25.9458 5.35315C25.8599 5.35315 25.7758 5.29988 25.754 5.20795C25.7287 5.10195 25.7064 4.97955 25.6965 4.85316C25.6368 4.09807 25.6972 4.00593 25.5902 3.9824C25.5835 3.98093 25.5772 3.9803 25.5711 3.9803C25.4113 3.9803 25.4611 4.47041 25.5683 4.90527C25.5912 4.99835 25.6155 5.08009 25.639 5.15269C25.6866 5.27614 25.736 5.38015 25.7739 5.45454C25.8138 5.53239 25.8002 5.6261 25.74 5.69009C25.5048 5.93982 25.187 6.26299 25.0375 6.36795C25.0177 6.38171 24.9944 6.39012 24.9706 6.39012C24.9649 6.39012 24.9592 6.38959 24.9535 6.38865C24.9 6.37898 24.8635 6.33275 24.8658 6.28138L24.8781 5.93467C24.8844 5.39444 24.8578 4.52074 24.7572 3.57476C24.7363 3.37965 24.5898 2.29719 24.2334 1.44934C24.2264 1.43453 24.2195 1.41961 24.2125 1.40542C24.2078 1.39576 24.2041 1.38567 24.2011 1.37537C24.1891 1.34858 24.1769 1.32179 24.1646 1.29553C24.1497 1.2639 24.145 1.22766 24.1569 1.19509C24.1775 1.14003 24.2309 1.1062 24.288 1.1062M19.8721 1.12522C20.6394 1.12522 20.879 1.79605 20.7679 2.86075L20.7675 2.86138C20.6855 3.64494 20.4081 4.26397 20.2876 4.50277C20.2527 4.57127 20.2487 4.65081 20.278 4.72183C20.7517 5.87374 20.8035 6.77192 20.7393 7.62009C20.6848 8.34092 20.1186 8.91057 19.4675 9.09632C19.0716 9.20947 18.6348 9.32767 18.2664 9.42527C18.2101 9.4403 18.1539 9.44744 18.0986 9.44744C17.7549 9.44744 17.4517 9.1706 17.4147 8.78523C17.3307 7.9006 17.3144 6.92804 17.1467 5.82015C16.942 4.46632 15.8472 3.76397 15.3151 3.06636C15.1805 2.88964 15.2483 2.62825 15.4426 2.53485C15.9559 2.28763 16.693 2.01983 17.2566 1.85929C17.2979 1.84753 17.3397 1.84164 17.3807 1.84175C17.5168 1.84175 17.6454 1.90594 17.7241 2.03128C18.2837 2.92494 18.402 5.08461 18.3801 5.79189C18.3637 6.31174 18.3295 6.69627 18.3554 6.96544C18.4108 7.30521 18.6406 7.36279 18.7898 7.36279C18.8662 7.36279 18.9215 7.34776 18.9215 7.34776C19.4496 7.22169 19.4542 6.58879 19.3942 6.16423C19.3806 6.08407 19.3666 6.01242 19.354 5.95264C18.9965 5.79977 18.788 5.52556 18.6744 5.31806C18.596 5.17391 18.6086 4.99783 18.7112 4.86923C19.0742 4.41494 19.0786 4.04081 19.0786 4.04081C18.893 3.80495 18.2448 3.07539 18.1887 2.39038C18.121 1.56774 18.5102 1.39523 19.4802 1.17418C19.6238 1.1414 19.7543 1.12564 19.8722 1.12564M19.6562 3.03494C19.6584 3.03494 19.6606 3.03494 19.6628 3.03463C19.7488 3.02717 19.8089 2.87661 19.7963 2.69927C19.784 2.52644 19.7074 2.3907 19.6239 2.3907C19.6217 2.3907 19.6195 2.3907 19.6173 2.39102C19.5312 2.39847 19.4715 2.54871 19.4838 2.72638C19.4961 2.8992 19.5727 3.03494 19.6562 3.03494ZM26.3885 1.69865C26.4454 1.69865 26.5079 1.70685 26.5753 1.72408C27.2689 1.90142 27.7186 2.15021 28.0006 2.27534L28.0016 2.27597H28.0019C28.1238 2.32997 28.1723 2.47433 28.1059 2.5878C28.0019 2.76546 27.8794 2.95615 27.7611 3.13486C27.7202 3.19643 27.6541 3.22679 27.5882 3.22679C27.5177 3.22679 27.4474 3.19222 27.408 3.12414C27.3754 3.06856 27.3416 3.00584 27.3123 2.93314C27.212 2.68467 27.0929 2.57551 27.0288 2.57551C26.9648 2.57551 26.9549 2.69297 27.0889 2.89437C27.1377 2.96802 27.2321 3.1066 27.3131 3.17026C27.4728 3.29592 27.5061 3.51991 27.3908 3.68528C27.3044 3.80936 27.2225 3.92146 27.1517 4.01644C27.107 4.07632 27.0406 4.10469 26.9745 4.10469C26.8882 4.10469 26.8027 4.05626 26.7674 3.96601C26.3536 3.0901 26.0712 2.47591 26.0234 2.27912C26.0164 2.25422 26.0108 2.22964 26.0065 2.20547C26.0065 2.20547 26.0065 2.20547 26.0067 2.20547C26.0125 2.20547 26.1291 2.24498 26.1291 2.24498L26.0055 2.20201C25.9548 1.9051 26.1026 1.69865 26.3887 1.69865M8.3436 2.55554C8.5353 2.55554 8.71976 2.6502 8.8242 2.81704C9.03146 3.14757 9.3168 3.73266 9.53237 4.67361C9.91264 6.33507 9.13611 6.60476 8.50333 7.0539C7.86947 7.50336 7.46328 7.43097 7.59849 8.25393C7.59849 8.25393 7.91019 7.77737 8.49545 7.77737C8.57915 7.77737 8.66836 7.78714 8.76307 7.80941C9.43571 7.96711 9.47793 9.25528 9.24865 10.0641V10.0644H9.24897C9.02811 10.8429 8.73229 10.9452 8.22026 10.9452C8.18786 10.9452 8.15459 10.9448 8.12046 10.9442C7.97369 10.9442 7.85079 10.9415 7.74872 10.9381C7.50756 10.9293 7.29101 10.7914 7.18906 10.5784C6.72109 9.60199 6.4553 8.67376 6.33013 8.16295V8.162C6.28066 7.97037 6.21316 7.66022 6.21057 7.64478C6.20992 7.64247 6.20992 7.64152 6.20992 7.64152C6.2056 7.61378 6.20225 7.58563 6.20225 7.55726C6.20031 7.31204 6.33844 7.07481 6.57064 6.93329C7.0101 6.66549 7.02468 6.62924 7.28054 6.46062C7.69839 6.18504 7.49913 5.97439 7.36456 5.86743C6.562 5.22771 6.05613 4.79411 5.42108 4.30683C5.31243 4.22383 5.12742 4.05258 5.3822 3.90266C5.73698 3.6939 6.02599 3.55112 6.36015 3.39867C6.92316 3.11721 7.62074 2.78574 8.14163 2.59221C8.20773 2.56773 8.2762 2.55596 8.3437 2.55596M8.2127 9.77839C8.31217 9.77839 8.40094 9.67522 8.41272 9.54473C8.42438 9.41224 8.35256 9.30203 8.25125 9.29888C8.24974 9.29888 8.24823 9.29888 8.24661 9.29888C8.14714 9.29888 8.05836 9.40205 8.04659 9.53254C8.03493 9.66503 8.10707 9.77524 8.20805 9.77839C8.20957 9.77839 8.21108 9.77839 8.2127 9.77839ZM9.29217 2.96056C9.30751 2.96056 9.32349 2.96413 9.33915 2.97222V2.97159L10.3781 3.49596C10.4453 3.52958 10.4506 3.61972 10.3895 3.66332C10.1985 3.79906 9.93964 4.30662 10.0124 5.3169C10.0164 5.37343 9.97064 5.42197 9.9121 5.42197C9.86058 5.42197 9.81738 5.38477 9.81209 5.33508C9.77991 5.04563 9.62935 3.94962 9.20253 3.10176C9.16754 3.03232 9.22359 2.96056 9.29206 2.96056M14.4702 3.02003C14.5175 3.02003 14.5609 3.02454 14.5993 3.03431C15.5257 3.26892 15.3516 4.37103 15.2892 4.81849C15.2267 5.26595 14.8433 6.21298 14.4115 6.36228L14.4109 6.36259H14.4115C14.4115 6.36259 14.4131 6.36238 14.4158 6.36238C14.4538 6.36238 14.7292 6.39474 14.5335 7.35312C14.3026 8.48234 13.6845 10.9858 12.2893 13.1942C12.1259 13.4527 11.8652 13.6391 11.5632 13.7147C11.0341 13.8471 10.0901 14.0491 8.89894 14.1583C8.88727 14.1594 8.87561 14.1599 8.86416 14.1599C8.63725 14.1599 8.46229 13.9545 8.51165 13.7335C8.65086 13.1086 8.92248 11.9974 9.22683 11.3393C9.31302 11.1533 9.50375 11.0385 9.70722 11.0385C9.74513 11.0385 9.78358 11.0425 9.82181 11.0508C10.062 11.1026 10.3921 11.1559 10.7347 11.1559C11.0029 11.1559 11.2787 11.1232 11.5249 11.0317C12.3371 10.7292 13.2227 8.39093 13.319 6.98414C13.3273 6.86038 13.2387 6.75122 13.113 6.73021C13.0887 6.72632 13.0619 6.72117 13.0326 6.71602C12.9226 6.69533 12.841 6.56767 12.8482 6.45915C12.8552 6.35797 12.8702 6.22906 12.902 6.10183C12.9345 5.97102 13.0538 5.87689 13.1923 5.87563C13.3706 5.87342 13.6292 5.83203 13.8059 5.63787C14.0892 5.32636 14.2373 4.54322 13.9606 4.4327C13.9274 4.41946 13.8982 4.41337 13.8726 4.41337C13.7012 4.41337 13.6971 4.68569 13.7856 4.88499C13.8019 4.92155 13.8158 4.95412 13.8274 4.98291C13.8755 5.10184 13.8363 5.23685 13.7314 5.31407C13.5742 5.42974 13.3079 5.58965 12.9597 5.66529C12.9421 5.66907 12.9247 5.67097 12.9076 5.67097C12.8071 5.67097 12.7175 5.60782 12.6764 5.51285C12.5927 5.31995 12.4735 4.9765 12.4877 4.41337C12.498 4.01203 12.5986 3.78394 12.8849 3.61983C13.2831 3.39142 14.0411 3.02013 14.4702 3.02013M15.5272 3.65072C15.5477 3.65072 15.5687 3.65807 15.5855 3.67509C15.8555 3.9471 16.181 4.23928 16.3847 4.58304C16.4156 4.63568 16.3807 4.69157 16.3159 4.69609C15.907 4.72519 15.7251 4.83278 15.5809 4.87154C15.5732 4.87364 15.5655 4.8747 15.5581 4.8747C15.5119 4.8747 15.4729 4.83687 15.4805 4.7918C15.5423 4.439 15.5158 3.99049 15.45 3.74107L15.4497 3.74044C15.4363 3.68938 15.4804 3.65072 15.5272 3.65072ZM10.7559 3.71964C10.8516 3.71964 10.9592 3.74622 11.077 3.80631C11.363 3.95204 11.7032 4.14293 11.9802 4.37397C12.2343 4.58567 12.4054 4.87606 12.4702 5.19535C12.5613 5.6467 12.6981 6.4561 12.7077 7.2884C12.722 8.54369 12.8509 9.87641 12.0052 9.98147C11.7218 10.0167 11.5033 10.0416 11.3425 10.0416C11.0232 10.0416 10.9314 9.94323 11.0109 9.6312C11.1305 9.16209 11.4766 8.58824 11.5544 7.61536C11.6304 6.66402 11.5315 6.45641 11.3751 6.45641C11.3715 6.45641 11.368 6.45652 11.3644 6.45673C11.2016 6.46576 11.2551 6.867 11.3212 7.23283C11.3873 7.59855 11.6082 7.93359 11.1106 8.15296C10.9881 8.20697 10.8977 8.22913 10.8308 8.22913C10.6112 8.22913 10.6445 7.99085 10.6332 7.85543C10.6226 7.72704 10.5746 7.63532 10.5106 7.63532C10.4863 7.63532 10.4599 7.64856 10.4322 7.67808C10.3319 7.78535 10.4183 8.01281 10.4754 8.31077C10.5326 8.60862 10.7508 9.5586 10.8624 10.189C10.9429 10.6463 11.0416 11.0351 10.5622 11.0351C10.5511 11.0351 10.5399 11.0349 10.5282 11.0345C9.96027 11.0141 9.61942 11.0141 9.55991 10.5331C9.49111 9.97349 9.37522 8.22252 9.4114 7.30521L9.41173 7.3049H9.41238C9.44715 6.42237 9.59198 5.57946 10.1712 5.57946C10.194 5.57946 10.2176 5.58082 10.2418 5.58345C10.2418 5.58345 10.1452 4.83771 10.2634 4.19578C10.3127 3.9284 10.4879 3.71974 10.7558 3.71985M20.7403 3.93512C20.766 3.93512 20.7917 3.9534 20.7949 3.98713C20.8245 4.32858 20.8584 4.87627 20.8318 5.37805C20.83 5.41293 20.8036 5.43195 20.7771 5.43195C20.7553 5.43195 20.7336 5.41902 20.7255 5.3916C20.67 5.20228 20.5853 4.94246 20.4717 4.67045C20.4521 4.62328 20.4535 4.5697 20.4747 4.52347V4.52316C20.5256 4.41326 20.6215 4.19494 20.6893 3.97483C20.6977 3.94783 20.719 3.93512 20.7404 3.93512M16.5037 4.85064C16.678 4.85064 16.7999 5.02273 16.7827 5.18284L16.783 5.18316H16.7834C16.7352 5.63419 16.3322 6.02933 16.9003 7.06945C17.2239 7.66138 17.3607 8.22136 17.2711 8.85426C17.1429 9.75927 16.3208 9.86717 15.9417 9.95185C15.7638 9.99156 15.472 10.0777 15.1856 10.0777C14.8262 10.0777 14.4752 9.94187 14.3688 9.40773C14.2446 8.78481 14.3694 8.35216 14.5408 7.87949C14.6043 7.70466 14.8049 7.57806 14.9923 7.56808C15.061 7.5644 15.1372 7.56178 15.2145 7.56178C15.3989 7.56178 15.5888 7.5768 15.6942 7.62944C15.948 7.75604 15.7895 8.15549 15.7433 8.32957C15.7247 8.40039 15.7616 8.47792 15.828 8.51018C15.8482 8.51953 15.8695 8.52394 15.8905 8.52394C15.9503 8.52394 16.0083 8.48864 16.0336 8.43107C16.2727 7.88726 15.7115 7.52637 15.3444 6.79104C15.0942 6.28989 15.1264 5.75869 15.1986 5.47954C15.2434 5.30503 15.3756 5.15322 15.547 5.09344C15.9144 4.96547 16.2545 4.87207 16.48 4.85169C16.488 4.85095 16.4959 4.85064 16.5036 4.85064M5.0461 7.05359C5.31653 7.05359 5.50759 7.09677 5.59777 7.12272C5.62995 7.13144 5.64658 7.16475 5.63535 7.19542C5.61742 7.24354 5.60446 7.2862 5.59582 7.31856C5.58492 7.35859 5.55295 7.39063 5.51147 7.4003C4.79262 7.56829 4.32799 7.99316 4.1054 8.24552C4.02073 8.34187 4.03628 8.48759 4.13899 8.56575C4.19613 8.60967 4.24894 8.65432 4.29279 8.69341C4.3699 8.76191 4.38912 8.87306 4.33933 8.96258C4.13899 9.32378 3.84674 9.7102 3.68657 9.91276C3.62577 9.98998 3.65007 10.1021 3.73842 10.1477C4.16264 10.3661 4.5373 10.4291 4.77318 10.444C4.91336 10.453 5.01262 10.5813 4.98238 10.7147C4.97147 10.7625 4.96013 10.8097 4.94954 10.853C4.9193 10.9758 4.99836 11.0979 5.12559 11.1231C5.31664 11.1613 5.4821 11.1797 5.65382 11.1797C5.80556 11.1797 5.96216 11.1653 6.14533 11.1376C6.26597 11.1111 6.42506 11.0658 6.62659 10.985C6.63869 10.9802 6.65143 10.9779 6.66396 10.9779C6.68923 10.9779 6.71418 10.9873 6.73319 11.0051C6.76375 11.0339 6.80792 11.0727 6.85847 11.1091L6.85814 11.1085C6.90826 11.1449 6.91387 11.2151 6.86905 11.2571C6.7401 11.3773 6.48306 11.5944 6.18508 11.7205C5.70545 11.9612 5.27257 12.0362 5.27257 12.0362C4.80893 12.1411 4.31071 12.1703 3.90053 12.1703C3.38925 12.1703 3.01481 12.1251 3.01481 12.1251C3.03209 11.7203 3.10553 11.3661 3.10553 11.3661C3.06395 11.3686 3.02107 11.3699 2.9769 11.3699C2.13783 11.3699 0.864066 10.9351 0.864066 10.9351C1.86059 10.1603 2.34822 9.26505 2.34887 9.264C1.99506 9.08046 1.67883 8.76968 1.67883 8.76968L2.77731 7.94484C3.72524 7.21087 4.53028 7.05369 5.0461 7.05369M14.1927 9.49073C14.2004 9.49073 14.2082 9.49167 14.216 9.49377C14.2495 9.50312 14.2718 9.53128 14.2787 9.56417C14.3322 9.82104 14.4647 9.99975 14.6029 10.0808C14.6677 10.1189 14.6524 10.2142 14.5783 10.2297C14.4306 10.261 14.0953 10.3225 14.0097 10.3354C14.0012 10.3367 13.9933 10.3373 13.9858 10.3373C13.9173 10.3373 13.8893 10.2864 13.9093 10.2308L13.9097 10.2298L14.1093 9.55198C14.1203 9.51489 14.1548 9.49073 14.1926 9.49073M21.9277 0C21.9188 0 21.9101 0 21.9012 0.000210125C21.9008 0.000210125 21.9004 0.000210125 21.8999 0.000210125C21.853 0.00115569 21.8035 0.00157594 21.751 0.00199619C21.6098 0.00315188 21.4498 0.00441263 21.2912 0.0171252C20.9727 0.0425504 20.6804 0.165158 20.4459 0.368139C20.2812 0.316449 20.091 0.284299 19.8725 0.284299C19.6875 0.284299 19.4893 0.308149 19.2834 0.355007C18.7601 0.474253 18.2595 0.606737 17.8863 0.915201C17.8345 0.957961 17.7862 1.00324 17.7412 1.05094C17.6262 1.01785 17.5051 1.00062 17.3809 1.00062C17.2573 1.00062 17.1338 1.01795 17.0139 1.0521C16.3586 1.23879 15.5918 1.52477 15.0602 1.78071C14.8677 1.87316 14.7066 2.01268 14.5896 2.18362C14.5504 2.18057 14.5106 2.179 14.4701 2.179C14.1581 2.179 13.7843 2.27103 13.3272 2.46046C12.9261 2.62667 12.5773 2.81988 12.4459 2.89521C12.2453 3.01025 12.08 3.15314 11.9522 3.32198C11.8088 3.23603 11.6516 3.14957 11.4777 3.061C11.3173 2.97926 11.1547 2.92473 10.9918 2.89794C10.927 2.83879 10.8537 2.78836 10.7741 2.74844L9.73681 2.22491C9.70798 2.21031 9.67838 2.19749 9.64847 2.18625C9.55418 2.14979 9.45428 2.12773 9.3533 2.12142C9.2588 2.02939 9.15101 1.95038 9.03319 1.88734C8.82258 1.77461 8.58411 1.71494 8.3436 1.71494C8.16896 1.71494 7.99756 1.74562 7.83404 1.80624C7.83372 1.80624 7.8335 1.80645 7.83318 1.80655C7.37201 1.97791 6.74831 2.25948 5.97912 2.64369C5.68071 2.78017 5.34742 2.94049 4.93507 3.18308C4.79456 3.26577 4.67824 3.36747 4.58936 3.48535C4.47196 3.64095 4.4036 3.82312 4.39182 4.01224C4.38081 4.18748 4.4131 4.45266 4.62932 4.72057C4.69963 4.80767 4.78398 4.88846 4.88733 4.96736C5.25227 5.24735 5.57336 5.50917 5.9451 5.81227C6.0571 5.90357 6.17568 6.00034 6.30194 6.10267C6.25053 6.13545 6.18886 6.1739 6.11207 6.22065C6.04911 6.259 5.98895 6.30134 5.93203 6.34715C5.90158 6.33496 5.87036 6.32435 5.83861 6.31542C5.6738 6.26846 5.40369 6.21298 5.04631 6.21298C4.39949 6.21298 3.38881 6.39873 2.24465 7.28294L1.15103 8.10411C0.955003 8.2513 0.833393 8.4732 0.816869 8.71347C0.800345 8.95375 0.890742 9.18941 1.06484 9.36066C1.07618 9.3718 1.11214 9.40668 1.16755 9.45637C0.961699 9.70558 0.680463 10.0016 0.324599 10.2783C0.0792194 10.4691 -0.0404462 10.7745 0.0122585 11.0757C0.0649632 11.3769 0.281506 11.6268 0.57797 11.7279C0.592334 11.7328 0.933943 11.849 1.38528 11.9648C1.65917 12.0351 1.91481 12.0905 2.15079 12.1307C2.1536 12.5504 2.47588 12.9066 2.90821 12.9589C2.9257 12.9611 3.34216 13.0106 3.90053 13.0106C4.45889 13.0106 4.99771 12.9595 5.45078 12.8586C5.57455 12.835 6.04014 12.7346 6.55704 12.4793C6.94476 12.3098 7.26488 12.0522 7.46684 11.8639C7.46738 11.8635 7.46781 11.8629 7.46835 11.8625C7.50129 11.8316 7.53175 11.7987 7.55951 11.7642C7.61145 11.7714 7.66405 11.7759 7.71686 11.7778C7.71719 11.7778 7.71751 11.7778 7.71794 11.7778C7.84236 11.7821 7.97499 11.7845 8.11204 11.7846C8.12068 11.7848 8.1291 11.7849 8.13731 11.785C7.94658 12.3711 7.78426 13.0296 7.66718 13.5551C7.58823 13.9088 7.67701 14.2737 7.91083 14.5558C8.14487 14.8381 8.49231 15 8.86416 15C8.90261 15 8.94149 14.9982 8.97983 14.9947C10.2 14.8829 11.1753 14.6793 11.7786 14.5283C12.0366 14.4637 12.2761 14.353 12.4905 14.1994C12.7057 14.0453 12.8856 13.8551 13.0253 13.6341C13.4979 12.8862 13.9219 12.0508 14.2917 11.1406C14.4418 11.1139 14.6485 11.0751 14.7624 11.0509C14.8809 11.0258 14.9914 10.9799 15.0898 10.9155C15.1213 10.9168 15.1533 10.9175 15.1856 10.9175C15.5258 10.9175 15.8368 10.8421 16.0427 10.7922C16.0775 10.7838 16.1102 10.7759 16.1347 10.7704C16.1559 10.7657 16.1817 10.7602 16.209 10.7544C16.4473 10.7043 16.846 10.6203 17.2235 10.3839C17.3265 10.3194 17.4215 10.2475 17.5083 10.169C17.6938 10.2467 17.8939 10.2874 18.0991 10.2874C18.2319 10.2874 18.3647 10.2701 18.4939 10.2358C18.8076 10.1527 19.2737 10.0275 19.7115 9.90236C19.9528 9.83355 20.1845 9.73038 20.4003 9.59569C20.4809 9.54536 20.5586 9.49115 20.6329 9.43326C20.7296 9.46278 20.831 9.47822 20.9338 9.47822C21.0517 9.47822 21.1685 9.45837 21.2812 9.41928C21.7821 9.24551 22.1854 9.09842 22.4794 8.98212C22.4796 8.98212 22.4797 8.98201 22.4799 8.98191C22.7385 8.87947 22.9608 8.71106 23.1276 8.49221C23.1522 8.49379 23.1768 8.49452 23.2013 8.49452C23.4195 8.49452 23.6344 8.43485 23.8228 8.32191C24.3474 8.00766 24.7528 7.70025 24.9477 7.54507C25.0815 7.43854 25.1976 7.31425 25.2934 7.17693C25.3808 7.14699 25.4642 7.10475 25.5414 7.05086C25.5423 7.05023 25.5431 7.0496 25.544 7.04907C25.6087 7.00358 25.8056 6.86532 26.3779 6.25753C26.3781 6.25732 26.3782 6.25711 26.3784 6.257C26.4491 6.18188 26.5074 6.09825 26.5524 6.00832C26.6205 5.9622 26.6833 5.90799 26.7394 5.84652C26.8706 5.7028 27.0629 5.48931 27.2354 5.28707C27.3542 5.14754 27.4449 4.9848 27.5002 4.8126C27.6377 4.73822 27.7584 4.63431 27.8515 4.50971C27.8516 4.5095 27.8518 4.50929 27.8519 4.50908C27.946 4.38279 28.0293 4.26722 28.1068 4.15607C28.1773 4.05489 28.2312 3.94521 28.2677 3.83069C28.3522 3.76303 28.4267 3.68213 28.4879 3.58967C28.6422 3.35654 28.7595 3.17026 28.8574 3.003C29.0087 2.74476 29.0415 2.43399 28.9472 2.15063C28.8545 1.87169 28.6459 1.64139 28.3739 1.51647C28.3691 1.51427 28.3643 1.51206 28.3595 1.50996C28.3154 1.49042 28.261 1.46468 28.198 1.43484C27.8954 1.29153 27.4382 1.075 26.7955 0.910683C26.6582 0.875487 26.5212 0.857626 26.389 0.857626C26.3131 0.857626 26.2387 0.863405 26.1661 0.874961C26.1181 0.828419 26.0706 0.790491 26.027 0.760023C25.8185 0.614511 25.5202 0.504616 25.0295 0.392199C24.7626 0.331157 24.4875 0.282303 24.434 0.275894C24.4331 0.275894 24.4324 0.275684 24.4315 0.275579C24.424 0.274529 24.4165 0.273478 24.4089 0.272637C24.3691 0.26791 24.3286 0.265598 24.2885 0.265598C24.217 0.265598 24.1465 0.272848 24.0777 0.287241C23.9066 0.202981 23.718 0.144566 23.5161 0.114833C23.5158 0.114833 23.5156 0.114833 23.5154 0.114833C23.3281 0.0874121 23.1557 0.0735438 23.0027 0.0735438C22.8257 0.0735438 22.6684 0.0919298 22.528 0.129227C22.3393 0.0441263 22.1356 0 21.9277 0Z" fill="white"/>
</g>
<path id="Vector_3" d="M9.41699 7.31023C9.38081 8.22754 9.4967 9.9784 9.5655 10.538C9.62501 11.019 9.96575 11.019 10.5338 11.0394C11.0517 11.0578 10.9504 10.6617 10.868 10.1939C10.7563 9.56351 10.5382 8.61354 10.481 8.31568C10.4239 8.01783 10.3375 7.79026 10.4378 7.683C10.5382 7.57573 10.6241 7.68331 10.6388 7.86034C10.6534 8.03706 10.5923 8.38891 11.1162 8.15788C11.6137 7.93851 11.3929 7.60346 11.3268 7.23774C11.2607 6.87202 11.2072 6.47068 11.37 6.46164C11.5324 6.45229 11.6377 6.64739 11.56 7.62027C11.4822 8.59315 11.1362 9.16701 11.0165 9.63611C10.8969 10.1053 11.1647 10.0913 12.0106 9.98639C12.8564 9.88133 12.7275 8.5485 12.7132 7.29332C12.7036 6.46101 12.5667 5.65161 12.4757 5.20026C12.4109 4.88098 12.2398 4.59058 11.9857 4.37888C11.7087 4.14785 11.3685 3.95695 11.0825 3.81123C10.6347 3.58314 10.3358 3.8377 10.269 4.20059C10.1508 4.84263 10.2474 5.58826 10.2474 5.58826C9.60935 5.51787 9.45415 6.39251 9.41797 7.30971H9.41732L9.41699 7.31002V7.31023Z" fill="#007BFC"/>
<path id="Vector_4" d="M14.417 6.36761C14.8488 6.21831 15.2322 5.27138 15.2946 4.82381C15.357 4.37635 15.5311 3.27425 14.6047 3.03964C14.218 2.94172 13.3324 3.37143 12.8904 3.62516C12.6041 3.78926 12.5034 4.01735 12.4931 4.41869C12.4789 4.98183 12.5981 5.32528 12.6818 5.51817C12.73 5.62933 12.8443 5.69689 12.9651 5.67072C13.3132 5.59508 13.5796 5.43517 13.7368 5.3195C13.8418 5.24228 13.881 5.10717 13.8328 4.98834C13.8211 4.95956 13.8072 4.92699 13.791 4.89042C13.6894 4.66139 13.7099 4.33601 13.9661 4.43802C14.2428 4.54855 14.0946 5.33169 13.8113 5.6432C13.6346 5.83735 13.3762 5.87875 13.1977 5.88095C13.0592 5.88222 12.9399 5.97635 12.9074 6.10716C12.8756 6.23439 12.8606 6.3634 12.8536 6.46447C12.8463 6.573 12.9281 6.70065 13.038 6.72135C13.0673 6.7265 13.0942 6.73165 13.1185 6.73553C13.2441 6.75655 13.3327 6.86571 13.3244 6.98947C13.2281 8.39626 12.3425 10.7345 11.5303 11.037C10.9697 11.2455 10.2555 11.1485 9.82723 11.056C9.58412 11.0034 9.33464 11.1239 9.23236 11.3446C8.92812 12.0027 8.65639 13.1139 8.51718 13.7388C8.46534 13.9711 8.66103 14.1859 8.90447 14.1637C10.0956 14.0544 11.0397 13.8525 11.5688 13.72C11.8707 13.6443 12.1314 13.458 12.2948 13.1995C13.69 10.9911 14.3082 8.48777 14.539 7.35845C14.749 6.33062 14.4171 6.36782 14.4171 6.36782H14.4164L14.4171 6.3675L14.417 6.36761Z" fill="#007BFC"/>
<path id="Vector_5" d="M16.7873 5.18768C16.8052 5.02031 16.6714 4.84003 16.4847 4.85652C16.2592 4.8769 15.919 4.9703 15.5517 5.09827C15.3803 5.15805 15.2481 5.30987 15.2033 5.48438C15.1312 5.76353 15.0989 6.29472 15.3491 6.79587C15.7162 7.53131 16.2774 7.8921 16.0383 8.4359C16.0041 8.51375 15.9101 8.55094 15.8327 8.51512C15.7663 8.48276 15.7294 8.40522 15.748 8.33451C15.7941 8.16043 15.9527 7.76098 15.6989 7.63438C15.5494 7.55968 15.2295 7.56073 14.997 7.57302C14.8096 7.583 14.609 7.70971 14.5455 7.88443C14.3741 8.3571 14.2492 8.78975 14.3735 9.41267C14.5645 10.3723 15.5451 10.0462 15.9463 9.95679C16.3253 9.87211 17.1475 9.76421 17.2757 8.8592C17.3653 8.22619 17.2285 7.66632 16.9049 7.07439C16.337 6.03438 16.7399 5.63913 16.7881 5.1881H16.7878L16.7874 5.18778L16.7873 5.18768Z" fill="#007BFC"/>
<path id="Vector_6" d="M20.7741 2.86684C20.9023 1.63845 20.5638 0.93432 19.4862 1.17996C18.5163 1.40101 18.127 1.57352 18.1948 2.39616C18.2509 3.08117 18.8989 3.81072 19.0847 4.04659C19.0847 4.04659 19.0804 4.42072 18.7173 4.87501C18.6147 5.00361 18.602 5.17969 18.6803 5.32384C18.794 5.53123 19.0025 5.80555 19.36 5.95841C19.3726 6.01819 19.3866 6.08995 19.4002 6.17001C19.4603 6.59457 19.4556 7.22757 18.9274 7.35354C18.9274 7.35354 18.4451 7.48497 18.3614 6.97132C18.3355 6.70215 18.3697 6.31773 18.386 5.79777C18.408 5.09049 18.2897 2.93093 17.73 2.03716C17.6278 1.874 17.4407 1.81453 17.2627 1.86528C16.6991 2.02582 15.9619 2.29373 15.4487 2.54083C15.2544 2.63423 15.1866 2.89563 15.3212 3.07234C15.8533 3.76996 16.9481 4.4723 17.1528 5.82614C17.3205 6.93403 17.3368 7.90659 17.4208 8.79122C17.4637 9.23836 17.8653 9.53947 18.2725 9.43126C18.6409 9.33376 19.0777 9.21546 19.4737 9.10231C20.1247 8.91656 20.6911 8.34691 20.7455 7.62607C20.8097 6.7779 20.7579 5.87972 20.2842 4.72782C20.2549 4.65679 20.2589 4.57726 20.2938 4.50876C20.4143 4.26995 20.6918 3.65092 20.7737 2.86737L20.7741 2.86674V2.86684ZM19.6689 3.0403C19.5828 3.04776 19.5024 2.90939 19.4898 2.73205C19.4775 2.55439 19.5373 2.40415 19.6233 2.39669C19.7093 2.38923 19.7897 2.52759 19.8024 2.70494C19.815 2.88229 19.7548 3.03284 19.6689 3.0403Z" fill="#007BFC"/>
<path id="Vector_7" d="M24.1288 1.52839C24.0062 1.21687 23.7581 1.00591 23.3934 0.952327C23.0047 0.895488 22.7776 0.920703 22.6782 0.979748C22.5393 1.0618 22.4962 1.23148 22.4962 1.23148C22.4952 1.22854 22.4938 1.2257 22.4925 1.22307C22.3959 0.997924 22.167 0.842746 21.9238 0.847264C21.7428 0.850836 21.5464 0.847264 21.3685 0.861448C20.9759 0.892756 20.723 1.27855 20.8002 1.7425C20.9785 2.81677 21.0207 3.8301 21.0074 5.21903C20.9928 6.74537 20.8317 7.78938 20.7725 8.42354C20.7599 8.56285 20.8658 8.67979 20.997 8.63419C21.4106 8.49078 21.8351 8.33854 22.1603 8.20995C22.4114 8.11045 22.5756 7.86618 22.5775 7.59407C22.5889 5.72175 21.9371 4.22125 22.1866 4.07868C22.3919 3.96143 22.3636 4.4922 22.3822 4.81474C22.3902 4.95721 22.5031 5.07194 22.6443 5.08003C22.8299 5.09032 22.9704 5.07582 23.0701 5.05576C23.1844 5.03317 23.2702 4.93819 23.2841 4.82157C23.387 3.95691 23.1728 3.44221 23.3359 3.34923C23.5133 3.24805 23.5861 3.47656 23.4385 4.64297C23.3419 5.40709 23.0621 6.52054 22.8867 7.24778C22.8176 7.53408 23.1246 7.76343 23.3757 7.61288C23.8055 7.35537 24.1742 7.0862 24.4068 6.90108C24.61 6.73918 24.7347 6.49722 24.7483 6.23645C24.7931 5.37798 24.7214 3.95827 24.52 2.91237C24.4031 2.3049 24.252 1.84263 24.1284 1.52923V1.5286L24.1288 1.52828V1.52839Z" fill="#007BFC"/>
<path id="Vector_8" d="M28.0061 2.27984C27.7242 2.15481 27.2744 1.90602 26.5809 1.72857C26.1747 1.62456 25.95 1.85034 26.0108 2.2064L26.1344 2.24937C26.1344 2.24937 26.0115 2.20766 26.0118 2.20997C26.0161 2.23424 26.0217 2.25872 26.0288 2.28362C26.0766 2.4804 26.3589 3.0946 26.7728 3.9705C26.8349 4.12978 27.0541 4.15888 27.1571 4.02093C27.2279 3.92596 27.31 3.81385 27.3963 3.68978C27.5115 3.5243 27.4783 3.30041 27.3185 3.17476C27.2374 3.11109 27.1431 2.97251 27.0943 2.89886C26.8312 2.50309 27.1135 2.43165 27.3179 2.93763C27.3471 3.01034 27.3809 3.07306 27.4135 3.12864C27.4899 3.26049 27.6823 3.26658 27.7666 3.13925C27.8849 2.96054 28.0074 2.76995 28.1113 2.59219C28.1778 2.47882 28.1293 2.33436 28.0073 2.28036H28.007L28.006 2.27973L28.0061 2.27984Z" fill="#007BFC"/>
<path id="Vector_9" d="M26.4023 3.28772C26.2906 2.98986 25.9057 2.87965 25.6492 3.0819C25.6189 3.10585 25.5488 3.17919 25.521 3.20629C25.5582 2.74202 25.8807 1.69455 25.5286 1.44859C25.2758 1.27219 24.3359 1.11607 24.3332 1.11576C24.3189 1.11418 24.3109 1.11281 24.3109 1.11281C24.2478 1.10535 24.1856 1.14024 24.1631 1.20065C24.1511 1.23332 24.1557 1.26946 24.1707 1.30109C24.183 1.32725 24.1952 1.35404 24.2072 1.38093C24.2103 1.39123 24.2139 1.40132 24.2186 1.41098C24.2256 1.42517 24.2325 1.44008 24.2395 1.4549C24.5959 2.30275 24.7424 3.38511 24.7633 3.58031C24.864 4.5264 24.8906 5.4 24.8842 5.94023L24.8719 6.28694C24.8695 6.33831 24.9061 6.38444 24.9596 6.39421C24.9892 6.39936 25.0191 6.39064 25.0436 6.37351C25.1931 6.26845 25.5109 5.94538 25.7461 5.69565C25.8063 5.63166 25.8199 5.53795 25.7801 5.46009C25.7421 5.38582 25.6927 5.2817 25.6452 5.15825C25.6216 5.08555 25.5973 5.00381 25.5744 4.91083C25.4632 4.45948 25.4137 3.94866 25.5963 3.98806C25.7033 4.0116 25.6429 4.10374 25.7026 4.85882C25.7126 4.98521 25.7348 5.10761 25.7601 5.21362C25.7953 5.36228 25.9936 5.40977 26.0982 5.29473C26.2411 5.13829 26.4212 4.93772 26.5756 4.75639C26.6849 4.6281 26.7287 4.46074 26.6945 4.29926C26.6401 4.0427 26.5367 3.64178 26.4035 3.28603L26.4029 3.28698L26.4023 3.28761V3.28772Z" fill="#007BFC"/>
<path id="Vector_10" d="M9.25357 10.0684C9.48275 9.25965 9.44062 7.97148 8.76799 7.81378C8.01058 7.6358 7.60341 8.2584 7.60341 8.2584C7.46819 7.43545 7.87439 7.50784 8.50825 7.05838C9.14103 6.60924 9.91767 6.33944 9.53729 4.67808C9.32171 3.73725 9.03638 3.15205 8.82912 2.82152C8.68796 2.59595 8.40025 2.50234 8.14655 2.59627C7.62566 2.78979 6.92819 3.12126 6.36507 3.40273C6.03091 3.55528 5.7419 3.69806 5.38712 3.90671C5.13234 4.05664 5.31735 4.22789 5.426 4.31089C6.06115 4.79817 6.56703 5.23176 7.36948 5.87149C7.50394 5.97844 7.70331 6.18909 7.28546 6.46467C7.02971 6.6333 7.01513 6.66954 6.57556 6.93735C6.34336 7.07887 6.20523 7.3161 6.20717 7.56131C6.20717 7.58968 6.21052 7.61784 6.21484 7.64557C6.21484 7.64557 6.21484 7.64652 6.21549 7.64883C6.21819 7.66438 6.28558 7.97453 6.33504 8.16605V8.167C6.46022 8.67781 6.72601 9.60604 7.19398 10.5825C7.29593 10.7955 7.51258 10.9334 7.75364 10.9421C7.8556 10.9457 7.9785 10.9483 8.12538 10.9483C8.69941 10.9597 9.01899 10.8963 9.25378 10.0685H9.25346V10.0682L9.25357 10.0684ZM8.0514 9.5366C8.06339 9.40411 8.15465 9.29979 8.25606 9.30304C8.35737 9.3063 8.42919 9.4164 8.41753 9.54889C8.40554 9.68137 8.31428 9.7857 8.21286 9.78244C8.11188 9.77919 8.03974 9.66908 8.0514 9.5366Z" fill="#007BFC"/>
<path id="Vector_11" d="M6.86365 11.1146C6.81311 11.0781 6.76893 11.0394 6.73837 11.0106C6.70986 10.9841 6.66828 10.976 6.63177 10.9905C6.43013 11.0713 6.27105 11.1166 6.15041 11.1431C5.75977 11.2022 5.49041 11.2006 5.13066 11.1286C5.00343 11.1034 4.92438 10.9813 4.95462 10.8585C4.9652 10.8152 4.97654 10.768 4.98745 10.7202C5.01769 10.5868 4.91844 10.4585 4.77825 10.4495C4.54238 10.4345 4.16772 10.3716 3.74349 10.1532C3.65514 10.1076 3.63084 9.99559 3.69165 9.91826C3.85171 9.7157 4.14407 9.32928 4.34441 8.96808C4.3942 8.87856 4.37497 8.76741 4.29786 8.69891C4.25401 8.65982 4.2012 8.61517 4.14407 8.57125C4.04147 8.49309 4.02581 8.34737 4.11048 8.25102C4.33307 7.99866 4.79769 7.57379 5.51655 7.4058C5.55802 7.39613 5.58999 7.36419 5.6009 7.32406C5.60954 7.2917 5.6225 7.24904 5.64043 7.20092C5.65166 7.17024 5.63514 7.13694 5.60284 7.12822C5.34072 7.05289 4.22734 6.83131 2.78239 7.95023L1.6839 8.77508C1.6839 8.77508 2.00013 9.08585 2.35394 9.2694C2.3533 9.27034 1.86567 10.1657 0.869141 10.9405C0.869141 10.9405 2.2805 11.4222 3.1106 11.3715C3.1106 11.3715 3.03716 11.7257 3.01988 12.1305C3.01988 12.1305 4.23598 12.2774 5.27765 12.0416C5.27765 12.0416 5.71052 11.9667 6.19015 11.7259C6.48813 11.5998 6.74517 11.3827 6.87413 11.2625C6.91895 11.2205 6.91333 11.1504 6.86322 11.1139L6.86354 11.1145L6.86365 11.1146Z" fill="#FF6B00"/>
<path id="Vector_12" d="M13.9146 10.2362C13.8923 10.2978 13.9291 10.3537 14.0149 10.3408C14.1005 10.3279 14.4358 10.2665 14.5835 10.2351C14.6576 10.2196 14.6728 10.1243 14.6081 10.0861C14.4699 10.005 14.3374 9.82632 14.2839 9.56954C14.2769 9.53655 14.2547 9.5085 14.2212 9.49915C14.1749 9.48686 14.1279 9.51271 14.1146 9.55736L13.915 10.2352L13.9147 10.2362H13.9146Z" fill="#007BFC"/>
<path id="Vector_13" d="M9.34462 2.97634L10.3836 3.50071C10.4508 3.53433 10.4561 3.62448 10.3949 3.66808C10.2039 3.80382 9.94511 4.31138 10.0179 5.32166C10.0219 5.37818 9.97611 5.42672 9.91757 5.42672C9.86605 5.42672 9.82285 5.38953 9.81756 5.33983C9.78538 5.05028 9.63482 3.95437 9.208 3.10652C9.16512 3.02152 9.25887 2.93306 9.34451 2.97697V2.97634H9.34462Z" fill="#007BFC"/>
<path id="Vector_14" d="M15.4549 3.74606C15.5207 3.99548 15.5472 4.44399 15.4855 4.79679C15.4765 4.84911 15.5306 4.89176 15.5858 4.87664C15.73 4.83787 15.912 4.73028 16.3209 4.70118C16.3857 4.69666 16.4205 4.64077 16.3897 4.58813C16.186 4.24437 15.8606 3.95229 15.5904 3.68018C15.5349 3.62429 15.4354 3.67209 15.4546 3.74543L15.4549 3.74606Z" fill="#007BFC"/>
<path id="Vector_15" d="M20.4797 4.52894C20.5306 4.41905 20.6265 4.20073 20.6943 3.98062C20.7125 3.92115 20.7943 3.93114 20.7999 3.99291C20.8295 4.33437 20.8634 4.88206 20.8368 5.38384C20.8335 5.4475 20.7485 5.45812 20.7306 5.39739C20.6751 5.20807 20.5904 4.94825 20.4768 4.67624C20.4571 4.62907 20.4585 4.57548 20.4798 4.52926V4.52894H20.4797Z" fill="#007BFC"/>
<path id="Vector_16" d="M8.99353 10.9527C9.06265 10.9676 9.14171 11.0041 9.18956 11.09C9.20748 11.122 9.25198 11.1269 9.27455 11.0981C9.31376 11.048 9.37986 10.9895 9.49617 10.9598C9.53041 10.9514 9.54531 10.913 9.52512 10.8848C9.47295 10.8138 9.40351 10.6645 9.38763 10.3659C9.38461 10.3145 9.3116 10.3026 9.29227 10.3508C9.22023 10.5295 9.11028 10.745 8.96977 10.8709C8.94018 10.8971 8.95487 10.9446 8.99397 10.953H8.99364V10.9527H8.99353Z" fill="#FF6B00"/>
<path id="Vector_17" d="M26.417 2.81494C26.4512 2.92547 26.5117 3.02654 26.594 3.10996C26.5611 2.9988 26.5013 2.89668 26.417 2.81494Z" fill="white"/>
<path id="Vector_18" d="M18.9881 5.34643C18.8014 5.12548 18.806 5.08629 18.8878 4.7959C18.6919 5.05919 18.7001 5.22235 18.9964 5.39623C19.015 5.40757 19.0337 5.41787 19.0529 5.42796C19.028 5.39696 19.0114 5.37532 18.9881 5.34622V5.34653V5.34643Z" fill="white"/>
<path id="Vector_19" d="M26.7974 4.58695C26.7166 4.70063 26.6442 4.82156 26.5781 4.94658C26.6053 4.92042 26.6329 4.89426 26.6602 4.8681C26.9206 4.63129 27.1558 4.35056 27.3056 4.00732C27.1336 4.19728 26.9468 4.3721 26.7974 4.58695Z" fill="#FF6B00"/>
<path id="Vector_20" d="M26.3514 2.6167C26.3587 2.62542 26.3664 2.63414 26.3739 2.64223C26.3457 2.58024 26.3278 2.51426 26.3049 2.44996C26.2985 2.42475 26.2929 2.39922 26.2883 2.37369C26.2691 2.27388 26.2431 2.15169 26.2448 2.08351C26.2448 2.08119 26.2454 2.09706 26.2451 2.09223C26.2384 2.00986 26.2584 1.92455 26.3248 1.86865C26.1992 1.91131 26.1527 2.04253 26.1454 2.16136C26.1291 2.34396 26.2241 2.53034 26.3218 2.65536C26.3374 2.67669 26.3693 2.72575 26.3805 2.72901C26.3722 2.69087 26.3619 2.65368 26.3512 2.61628H26.3509L26.3512 2.61659L26.3514 2.6167Z" fill="white"/>
<path id="Vector_21" d="M6.8838 6.93701C6.83099 6.95183 6.78844 6.98807 6.74199 7.01455C6.30524 7.28109 6.29616 7.85337 6.49888 8.25786C6.50752 8.27824 6.51714 8.29757 6.5261 8.31764C6.52448 8.21163 6.51908 8.10636 6.51973 8.00035C6.51476 7.70145 6.55634 7.44909 6.67017 7.20419C6.72201 7.11824 6.79178 7.03356 6.87149 6.96443C6.8878 6.95603 6.90335 6.94605 6.88315 6.93701H6.8838Z" fill="white"/>
<path id="Vector_22" d="M9.33731 4.73741C9.35287 4.8078 9.36388 4.8867 9.37123 4.96876C9.3749 5.06216 9.37285 5.15545 9.36453 5.24885C9.35287 5.46591 9.34455 5.52611 9.29779 5.74128C9.25891 5.88995 9.18978 6.02075 9.15393 6.11898C9.12909 6.17362 9.09485 6.22331 9.06526 6.27595C9.03631 6.33667 9.00251 6.39456 8.95963 6.4472C8.91146 6.52242 8.84569 6.59744 8.79688 6.65165C8.82344 6.63579 8.84969 6.61898 8.87528 6.60154C8.82841 6.65711 8.81146 6.69136 8.88986 6.6526C8.92172 6.63705 8.99916 6.57243 9.02541 6.54858C9.29779 6.29139 9.48376 5.9409 9.5004 5.56898C9.51033 5.28762 9.47448 4.98872 9.33731 4.7373V4.73741Z" fill="white"/>
<path id="Vector_23" d="M9.24614 8.76469C9.24387 8.58924 9.21925 8.41126 9.1309 8.25482C8.90399 7.87166 8.53204 7.79055 8.16699 8.05804C8.26365 8.0219 8.34077 8.00604 8.4384 7.99637C8.52772 7.98923 8.65602 7.99511 8.74966 8.05489C8.87818 8.13337 8.97581 8.26228 9.04267 8.3893C9.11341 8.52399 9.14203 8.72109 9.19646 9.07431C9.19776 9.08303 9.20478 9.08787 9.21212 9.0885C9.21374 9.11403 9.21612 9.13767 9.21947 9.14765C9.22443 9.11886 9.2294 9.08986 9.23405 9.06107C9.25295 8.96473 9.25662 8.86461 9.24636 8.76574V8.7648L9.24614 8.76469Z" fill="white"/>
<path id="Vector_24" d="M10.2296 10.7899C10.0204 10.7695 9.97854 10.5621 9.92703 10.3992C9.87292 10.2031 9.81276 10.0089 9.75293 9.81445C9.76319 10.1615 9.72733 10.9763 10.2927 10.8258C10.3133 10.8213 10.3332 10.8158 10.3538 10.8106C10.3124 10.8044 10.2708 10.7989 10.23 10.7899H10.2296Z" fill="white"/>
<path id="Vector_25" d="M12.5864 11.835C12.4615 12.0499 12.3263 12.2605 12.229 12.4893C12.2071 12.5317 12.1835 12.5789 12.1586 12.6282C12.1536 12.636 12.149 12.6435 12.1437 12.6511C12.0742 12.7629 12.0258 12.811 11.9603 12.9177C11.8653 13.0534 11.8211 13.139 11.7036 13.2427C11.6764 13.2689 11.6381 13.3019 11.6162 13.3239C11.6348 13.3151 11.6531 13.3064 11.6717 13.2974C11.672 13.2974 11.6727 13.2971 11.673 13.2967C11.6663 13.3025 11.6604 13.308 11.6537 13.3139C11.673 13.3052 11.6929 13.2961 11.7121 13.2868C11.7313 13.2787 11.75 13.269 11.7686 13.2593C11.7238 13.2939 11.6723 13.3194 11.6251 13.3507C11.7118 13.3223 11.8088 13.3055 11.8755 13.2399C11.9725 13.142 12.0762 13.0483 12.1575 12.9371C12.235 12.8269 12.3183 12.7204 12.3881 12.6053C12.4699 12.4567 12.5452 12.3049 12.6222 12.154C12.6957 11.9947 12.7578 11.8312 12.8328 11.6726C12.8956 11.5217 12.9505 11.3676 13.0202 11.2192C12.8637 11.4163 12.7302 11.629 12.587 11.8348H12.5864V11.8351V11.835Z" fill="white"/>
<path id="Vector_26" d="M9.00034 13.6855C8.91923 13.522 8.95314 13.302 8.97074 13.1059C8.97506 13.0352 8.98565 12.965 8.99202 12.8946C8.99202 12.8888 8.98738 12.8837 8.98144 12.883C8.97539 12.882 8.96977 12.8859 8.96815 12.8914C8.96783 12.894 8.96783 12.8962 8.9675 12.8988C8.9566 12.9108 8.95422 12.9415 8.94396 12.9602C8.88748 13.1411 8.81738 13.3259 8.82041 13.5172C8.84039 13.84 9.09873 14.008 9.41603 13.9234C9.24928 13.903 9.0673 13.839 9.00109 13.6852H9.00045V13.6855H9.00034Z" fill="white"/>
<path id="Vector_27" d="M14.6152 8.04877C14.5139 8.28652 14.4916 8.54992 14.5076 8.80511C14.515 8.89788 14.5259 8.99097 14.5455 9.08164C14.5465 9.06577 14.5498 9.03835 14.5522 9.0186C14.5552 9.03089 14.5583 9.04318 14.5609 9.05453C14.5618 8.99895 14.5662 8.94369 14.5698 8.88874C14.6031 8.66874 14.6486 8.42899 14.703 8.20541C14.7243 8.12588 14.7403 8.03837 14.7886 7.97659C14.8182 7.93488 14.9045 7.89643 14.9218 7.89002C15.0205 7.84705 15.1065 7.84799 15.2134 7.83507C14.9819 7.78012 14.7075 7.79819 14.6142 8.04866H14.6152V8.04877Z" fill="white"/>
<path id="Vector_28" d="M19.3623 8.93001C19.4726 8.91257 19.5749 8.86214 19.6513 8.78271C19.5473 8.8157 19.4479 8.86288 19.3623 8.93001Z" fill="white"/>
<path id="Vector_29" d="M20.5859 7.207C20.5809 7.1841 20.5753 7.16109 20.5699 7.13818C20.5629 7.2174 20.5557 7.27193 20.5457 7.34306C20.5457 7.34474 20.5454 7.34694 20.5451 7.34894C20.4703 7.75343 20.3923 7.94664 20.186 8.26498C20.1169 8.37834 20.0677 8.43045 19.984 8.52669C19.9358 8.58122 19.8953 8.64331 19.8379 8.68985C19.9322 8.64814 20.0103 8.57838 20.0967 8.52438C20.2541 8.41806 20.3839 8.27433 20.4863 8.11758C20.6374 7.84137 20.6561 7.50884 20.5857 7.2071H20.586L20.5859 7.207Z" fill="white"/>
<path id="Vector_30" d="M22.2738 6.8532C22.2566 6.79342 22.2383 6.73427 22.2204 6.6748C22.2227 6.8034 22.2244 6.93231 22.2306 7.06091C22.2396 7.2247 22.2503 7.38923 22.2273 7.55271C22.2279 7.59662 22.1848 7.78374 22.0901 7.89815C22.0416 7.9592 21.9499 8.06646 21.8486 8.11521C22.042 8.07865 22.2154 7.94459 22.3077 7.7766C22.4585 7.48452 22.3575 7.15011 22.2735 6.85352H22.2738V6.8532Z" fill="white"/>
<path id="Vector_31" d="M25.4822 2.57777C25.4985 2.51704 25.5121 2.45527 25.5198 2.39265C25.5663 2.13514 25.5865 1.84821 25.4327 1.62306C25.383 1.55971 25.3089 1.52189 25.2318 1.49636C25.2165 1.49153 25.2058 1.51117 25.2185 1.52063C25.2783 1.56391 25.3331 1.6134 25.363 1.67864C25.4171 1.82794 25.4085 1.89969 25.4291 2.03375C25.4301 2.05151 25.4318 2.06927 25.4334 2.08702C25.4484 2.2547 25.4566 2.42301 25.4742 2.59069C25.4742 2.59489 25.4742 2.5991 25.4745 2.60361C25.4745 2.60298 25.4749 2.60235 25.4752 2.6013C25.4752 2.60256 25.4752 2.60456 25.4755 2.60582C25.4779 2.59647 25.4795 2.58743 25.4815 2.57808L25.4821 2.57777H25.4822Z" fill="white"/>
<path id="Vector_32" d="M25.9853 4.85629C25.9624 4.76027 25.9365 4.66466 25.9075 4.57031C25.8969 4.75764 25.8843 5.1199 26.1687 5.08501C26.0504 5.06306 26.0022 4.96188 25.9853 4.85629Z" fill="white"/>
<path id="Vector_33" d="M21.0899 1.91086C21.0986 1.9406 21.1075 1.97064 21.1181 1.99975C21.1165 1.96613 21.1157 1.93219 21.1154 1.89857C21.1138 1.73509 21.1463 1.57382 21.1941 1.41812C21.2266 1.30896 21.2788 1.20453 21.3735 1.13477C21.0859 1.2579 21.0115 1.64012 21.0896 1.91118H21.0899V1.91086Z" fill="white"/>
<path id="Vector_34" d="M12.7881 3.94666C12.5672 4.26626 12.6858 4.6801 12.7748 5.02555C12.7854 5.05433 12.8187 5.19291 12.814 5.12052C12.818 4.93089 12.8216 4.74083 12.8177 4.55087C12.8201 4.35409 12.7878 4.15216 12.8801 3.97513C12.9389 3.88078 13.0339 3.81491 13.12 3.74609C12.9998 3.79453 12.8702 3.84401 12.7881 3.94708V3.94676V3.94666Z" fill="white"/>
<path id="Vector_35" d="M11.2654 13.4386C11.1524 13.466 11.0661 13.5029 10.9648 13.5378C11.1303 13.551 11.2966 13.5107 11.4379 13.4257C11.4552 13.416 11.4718 13.4056 11.4888 13.395C11.414 13.407 11.339 13.4202 11.2655 13.4383V13.4386H11.2654Z" fill="white"/>
<path id="Vector_36" d="M11.2806 4.28861C11.1089 4.12808 10.8155 3.88959 10.5804 4.06861C10.4658 4.17137 10.4609 4.33222 10.4588 4.47342C10.4555 4.6598 10.4622 4.84723 10.4873 5.03204C10.5086 4.84975 10.5432 4.66274 10.5713 4.47657C10.5893 4.32864 10.6195 4.19679 10.6882 4.14993C10.7105 4.13543 10.729 4.12987 10.7557 4.1264C10.9035 4.11705 11.0407 4.18198 11.1699 4.24627C11.216 4.26792 11.2616 4.28988 11.3064 4.31351C11.2978 4.30511 11.2888 4.29639 11.2802 4.2883H11.2805V4.28861H11.2806Z" fill="white"/>
<path id="Vector_37" d="M14.1581 7.89633C14.1551 7.90863 14.1402 7.96452 14.1359 7.98711C14.1315 8.0097 14.1242 8.06885 14.1162 8.08208C14.2066 7.90894 14.2913 7.73244 14.3607 7.54994C14.4716 7.24495 14.5268 6.90664 14.4318 6.5903C14.3734 6.44069 14.2853 6.39058 14.1375 6.38186C14.1272 6.38123 14.1239 6.39509 14.1335 6.39867C14.1402 6.40129 14.1461 6.40318 14.1527 6.40581C14.2447 6.44006 14.3112 6.51917 14.3258 6.61394C14.3431 6.72573 14.3434 6.8601 14.3358 6.95256C14.3033 7.33961 14.2697 7.44173 14.178 7.81491C14.1716 7.84076 14.1654 7.86755 14.1584 7.89602" fill="white"/>
<path id="Vector_38" d="M16.2465 5.09965C16.3156 5.10711 16.3979 5.0883 16.4491 5.13201C16.4641 5.15554 16.4531 5.18654 16.4501 5.2128C16.4355 5.28288 16.409 5.34917 16.3893 5.41799C16.3189 5.66867 16.3637 5.93048 16.4305 6.17759C16.4351 6.01674 16.4381 5.85515 16.4537 5.69451C16.47 5.55877 16.4879 5.4638 16.5198 5.30578C16.5623 5.06372 16.466 5.03178 16.2464 5.09933H16.2461L16.2464 5.09965H16.2465Z" fill="white"/>
<path id="Vector_39" d="M8.76055 3.28065C8.68181 3.10425 8.5304 2.78696 8.28685 2.85189C8.18188 2.87584 8.08521 2.93299 8.02344 3.01988C8.10314 2.95043 8.21276 2.9165 8.29819 2.91072C8.32908 2.90946 8.36159 2.90809 8.39118 2.9185C8.42639 2.93331 8.45393 2.96052 8.4805 2.98668C8.55491 3.05938 8.61701 3.1427 8.67749 3.22675C8.72437 3.29462 8.77286 3.36176 8.81833 3.43068C8.80105 3.37993 8.7815 3.33024 8.76022 3.28075H8.76055V3.28065Z" fill="white"/>
<path id="Vector_40" d="M23.5582 7.28111C23.3825 7.32345 23.1802 7.29561 23.1636 7.08496C23.1077 7.34342 23.3828 7.43167 23.5778 7.30244C23.5984 7.28952 23.6183 7.27659 23.6376 7.26178C23.6114 7.26893 23.5851 7.27502 23.5582 7.2808V7.28111Z" fill="white"/>
<path id="Vector_41" d="M5.7002 4.09634C5.80917 4.03435 5.9257 3.97846 6.01902 3.89893C5.90011 3.94095 5.78087 3.99842 5.7002 4.09634Z" fill="white"/>
<path id="Vector_42" d="M18.2894 9.19181C18.1166 9.20662 17.9705 9.08874 17.8911 8.97181C17.8446 8.88555 17.8207 8.74729 17.7892 8.63288C17.7304 8.37663 17.6802 8.11397 17.653 7.86035C17.6161 8.10273 17.6101 8.35015 17.6314 8.59411C17.6507 8.74529 17.6676 8.90299 17.7426 9.03968C17.911 9.28784 18.199 9.38344 18.4621 9.2041C18.498 9.18151 18.5335 9.15819 18.5681 9.13371C18.4764 9.1583 18.3844 9.18729 18.289 9.1916H18.2893V9.19192L18.2894 9.19181Z" fill="white"/>
<path id="Vector_43" d="M9.67974 9.38471C9.67509 9.37273 9.67304 9.36055 9.67217 9.38145C9.66019 9.47706 9.67282 9.57698 9.72304 9.66124C9.72207 9.56752 9.71408 9.47317 9.67984 9.38471H9.67974Z" fill="white"/>
<path id="Vector_44" d="M11.1152 12.8286C11.1455 12.8192 11.1737 12.8044 11.1986 12.7847C11.1684 12.7943 11.1402 12.8093 11.1152 12.8286Z" fill="#FF6B00"/>
<path id="Vector_45" d="M8.91115 11.1555C8.84408 11.0327 8.681 11.0386 8.55745 11.0456C8.35883 11.0576 8.15881 11.0775 7.96484 11.1205C8.17048 11.1289 8.37579 11.1502 8.58175 11.1574C8.69969 11.1616 8.75185 11.1706 8.78706 11.1962C8.78835 11.1974 8.79041 11.1988 8.7917 11.2C8.81492 11.2229 8.82022 11.2229 8.83458 11.2682C8.83825 11.2779 8.83696 11.318 8.83696 11.3251C8.83696 11.4491 8.82994 11.5134 8.81039 11.6058C8.79149 11.6992 8.77248 11.8068 8.76125 11.8947C8.81471 11.7496 8.87951 11.6087 8.92498 11.4614C8.94722 11.3623 8.95122 11.2511 8.91234 11.1555H8.91137H8.91115Z" fill="#FF6B00"/>
<path id="Vector_46" d="M8.54004 12.7901C8.63638 12.5484 8.69448 12.2938 8.7055 12.0347C8.61154 12.2774 8.54836 12.5304 8.54004 12.7901Z" fill="#FF6B00"/>
<path id="Vector_47" d="M7.23819 5.96052C7.14747 5.87909 6.90101 5.74377 6.75488 5.64648C6.89604 5.82131 7.06312 5.97407 7.2316 6.12305C7.25849 6.147 7.26044 6.18766 7.2356 6.21382C7.17749 6.27486 7.09941 6.31952 7.0359 6.37404C7.01365 6.39474 6.86688 6.49718 6.93762 6.46188C7.08807 6.39054 7.26713 6.34105 7.37643 6.21151C7.44523 6.10582 7.31368 6.01799 7.23754 5.96052H7.23819Z" fill="#FF6B00"/>
<path id="Vector_48" d="M6.33795 6.98291C6.2293 7.01853 6.15856 7.09564 6.1024 7.16835C5.96383 7.35221 5.95886 7.57357 6.04764 7.77004C6.05822 7.79389 6.06892 7.81784 6.08047 7.84138C6.07982 7.81616 6.08015 7.79095 6.07982 7.76573C6.07918 7.71278 6.07745 7.64523 6.0755 7.57967C6.07054 7.39969 6.12702 7.2213 6.24388 7.07694C6.27477 7.03849 6.30706 7.00487 6.33795 6.98291Z" fill="#FF6B00"/>
<path id="Vector_49" d="M6.09766 7.94971C6.10597 8.0285 6.13286 8.1177 6.18201 8.17559C6.16807 8.09606 6.14377 8.01758 6.09766 7.94971Z" fill="#FF6B00"/>
<path id="Vector_50" d="M15.155 10.2697C14.9853 10.3085 14.8148 10.3446 14.6431 10.3737C14.474 10.3989 14.3072 10.4351 14.1398 10.4694L14.167 10.4662C14.0561 10.4791 13.9512 10.5247 13.8724 10.5964C13.7332 10.7046 13.6837 10.8674 13.6269 11.0187C13.5532 11.2158 13.4589 11.4067 13.3965 11.6071C13.3702 11.8277 13.6181 11.3314 13.7588 11.0743C13.8335 10.9454 13.9361 10.8203 14.0309 10.7392C14.1082 10.6773 14.1232 10.6756 14.1664 10.6597C14.1874 10.6524 14.2082 10.6452 14.2295 10.6387C14.3836 10.5922 14.5344 10.5363 14.6872 10.4866C14.8482 10.43 15.002 10.3586 15.1529 10.2831C15.1689 10.275 15.1854 10.2672 15.2014 10.2588C15.1862 10.2624 15.1708 10.2659 15.1553 10.2694H15.1549V10.2697H15.155Z" fill="#FF6B00"/>
<path id="Vector_51" d="M12.0336 3.80448C12.0336 3.80448 12.0347 3.80409 12.0356 3.80371H12.0363C12.0363 3.80371 12.0348 3.80448 12.0332 3.80486L12.0336 3.80448Z" fill="#FF6B00"/>
<path id="Vector_52" d="M12.0734 3.78236C12.0465 3.79434 11.9821 3.82207 11.8848 3.84792C11.8087 3.8683 11.7283 3.86672 11.6586 3.83079C11.5453 3.77227 11.4334 3.71092 11.3271 3.64147C11.3899 3.72352 11.4633 3.79717 11.5381 3.86862C11.544 3.87345 11.5497 3.87891 11.5557 3.88416C11.6765 3.9969 11.853 4.03672 12.0091 3.97851C12.2061 3.90581 12.3957 3.75263 12.5479 3.64861C12.5861 3.62014 12.6244 3.59146 12.6625 3.56299C12.4565 3.62666 12.2715 3.69736 12.0735 3.78173V3.78236H12.0734Z" fill="#FF6B00"/>
<path id="Vector_53" d="M18.354 1.33742C18.0066 1.41758 17.6811 1.55553 17.3538 1.68738C17.3338 1.69095 17.3143 1.69579 17.2983 1.7064C17.2828 1.72867 17.3126 1.7293 17.3289 1.72678C17.5335 1.6899 17.7331 1.63433 17.9338 1.58232C18.247 1.49312 18.4798 1.39237 18.7722 1.26146C18.7818 1.25726 18.7908 1.25305 18.8004 1.24854C18.6503 1.27249 18.5008 1.30117 18.3536 1.33773H18.3539V1.33742H18.354Z" fill="#FF6B00"/>
<path id="Vector_54" d="M7.59514 11.0656C7.47385 11.0397 7.33442 10.9742 7.28226 10.9066C7.22977 10.8449 7.15039 10.727 7.08397 10.6223C7.05243 10.5725 7.02154 10.5199 6.98331 10.4756C6.97737 10.475 6.98234 10.4792 6.98396 10.4818C7.06269 10.6528 7.11615 10.888 7.27124 11.0059C7.37654 11.076 7.51975 11.1048 7.6459 11.0951C7.67311 11.0934 7.70065 11.0903 7.72798 11.0873C7.68381 11.0805 7.63931 11.075 7.59546 11.0663H7.59514V11.0657V11.0656Z" fill="#FF6B00"/>
<path id="Vector_55" d="M20.558 1.70657C20.4989 1.54109 20.3889 1.38697 20.2275 1.30239C20.0916 1.23683 19.9996 1.2465 19.8332 1.25364C19.6794 1.26593 19.5342 1.31762 19.3857 1.35576C19.5109 1.35251 19.6355 1.33675 19.7612 1.34704C19.8741 1.35124 20.0538 1.39747 20.0953 1.42426C20.2923 1.55738 20.3335 1.69112 20.4301 1.99612C20.4799 2.18933 20.4845 2.27559 20.486 2.5477C20.476 2.76224 20.4394 2.97446 20.4351 3.19005C20.5128 2.90018 20.631 2.61819 20.6473 2.31603C20.6669 2.10927 20.6337 1.90051 20.5569 1.7073H20.5576L20.5579 1.70667L20.558 1.70657Z" fill="white"/>
<path id="Vector_56" d="M17.9659 3.74142C17.9619 3.65348 17.9576 3.56628 17.9536 3.47844C17.9462 3.272 17.922 3.06744 17.8712 2.86845C17.8167 2.62576 17.6623 2.12849 17.44 2.03457C17.351 2.00841 17.259 2.04329 17.1746 2.07523C17.064 2.12366 16.9547 2.17598 16.8467 2.23156C17.0367 2.19437 17.2482 2.12524 17.3807 2.15728C17.4363 2.17672 17.495 2.29817 17.5409 2.40449C17.6376 2.64551 17.7253 2.88431 17.824 3.2016C17.8712 3.3738 17.91 3.54894 17.9595 3.72082C17.9622 3.72923 17.9638 3.73763 17.9665 3.74541V3.74152H17.9659V3.74142Z" fill="white"/>
<path id="Vector_57" d="M22.7999 4.92732C22.6597 4.87017 22.5551 4.73054 22.5328 4.58545C22.4731 4.75124 22.6085 4.95149 22.7936 4.94728C22.8126 4.94728 22.8315 4.94602 22.85 4.94277C22.8328 4.93856 22.8161 4.9331 22.7992 4.9269H22.7995L22.7998 4.92722L22.7999 4.92732Z" fill="white"/>
<path id="Vector_58" d="M20.8934 8.78786C20.6715 8.83504 20.4523 8.89513 20.2327 8.95166C20.0466 9.0066 19.866 9.07479 19.6963 9.14938C19.9647 9.09023 20.2374 9.04306 20.4985 8.95911C20.643 8.90932 20.7805 8.84376 20.9197 8.78271C20.9111 8.78429 20.9021 8.78629 20.8935 8.78786H20.8934Z" fill="#FF6B00"/>
<path id="Vector_59" d="M22.9075 7.87326C22.8162 7.90394 22.7365 7.95889 22.6494 7.99734C22.7829 7.98862 22.9088 7.9279 23.0168 7.85351C23.0288 7.84542 23.041 7.8367 23.053 7.82861C23.0039 7.84091 22.9551 7.85572 22.9082 7.87358H22.9079L22.9075 7.87326Z" fill="#FF6B00"/>
<path id="Vector_60" d="M22.9541 6.19944C22.9884 6.10257 23.0581 5.85504 23.0906 5.70344C23.1232 5.54122 23.1315 5.37417 23.1548 5.21973C23.0306 5.52987 22.9445 5.86534 22.9538 6.19933H22.9541V6.19944Z" fill="#FF6B00"/>
<path id="Vector_61" d="M26.5101 1.57885C26.3414 1.50005 26.1648 1.42956 25.9787 1.38112C25.786 1.33427 25.5854 1.31357 25.3848 1.30811C25.7013 1.39983 26.0172 1.49491 26.3461 1.55563C26.4099 1.56793 26.474 1.5799 26.5375 1.59251C26.5285 1.58831 26.5195 1.58379 26.5106 1.57927H26.5102V1.57896L26.5101 1.57885Z" fill="#FF6B00"/>
<path id="Vector_62" d="M24.247 2.63222C24.247 2.6296 24.247 2.62739 24.2466 2.62476C24.2143 2.30201 24.1436 1.98241 24.0377 1.67489C23.9002 1.27135 23.575 1.04158 23.1338 1.12111C23.18 1.13823 23.2543 1.13855 23.3125 1.15693C23.3498 1.16691 23.4198 1.19539 23.4719 1.22543C23.4753 1.22775 23.479 1.22964 23.4819 1.23195C23.6616 1.36023 23.7157 1.43777 23.7988 1.61059C23.7997 1.61322 23.8015 1.61574 23.8021 1.61837C23.9575 2.01256 24.1097 2.40833 24.2535 2.80705C24.2824 2.90948 24.2492 2.67687 24.2469 2.63222H24.247Z" fill="white"/>
<path id="Vector_63" d="M16.2139 9.66022C16.3219 9.64992 16.4228 9.60758 16.5082 9.54297C16.4025 9.56104 16.3022 9.60117 16.2139 9.66022Z" fill="white"/>
<path id="Vector_64" d="M24.5505 5.4237C24.5478 5.40783 24.5242 5.40846 24.5223 5.42433C24.4981 5.65378 24.493 5.8741 24.4519 6.06437C24.4229 6.22659 24.3525 6.40393 24.3083 6.50059C24.3066 6.50479 24.3083 6.50122 24.313 6.48924C24.2735 6.58558 24.1625 6.71061 24.1216 6.76745C24.1149 6.77554 24.1093 6.78289 24.103 6.79098C24.0691 6.8246 24.0336 6.85686 24.0004 6.89142C24.0137 6.88428 24.0267 6.87724 24.0396 6.87009C24.0207 6.89405 24.0004 6.9179 23.9775 6.94574C24.0004 6.93124 24.0238 6.91664 24.047 6.90214C24.1659 6.8246 24.2861 6.74475 24.3875 6.64621C24.4616 6.56258 24.5187 6.46424 24.5616 6.36285C24.6835 6.06111 24.5985 5.73279 24.5507 5.42391V5.42359L24.5505 5.4237Z" fill="white"/>
<path id="Vector_65" d="M17.0914 8.28564C17.0763 8.22617 17.0587 8.14958 17.0425 8.1001C17.0392 8.20411 17.0385 8.30791 17.0419 8.41192C17.0449 8.53506 17.0273 8.59253 17.0067 8.7124C16.9884 8.80875 16.9728 8.90624 16.9353 8.99765C16.9174 9.03221 16.8659 9.15272 16.8223 9.2271C16.7429 9.33469 16.6785 9.43135 16.5576 9.50857C16.6922 9.47495 16.8004 9.38186 16.8954 9.28762C16.9649 9.20399 17.02 9.10733 17.0675 9.01005C17.1107 8.9157 17.121 8.81064 17.1302 8.70894C17.1478 8.56616 17.1306 8.42359 17.092 8.28564H17.0914Z" fill="white"/>
<path id="Vector_66" d="M27.7302 2.97968C27.5967 3.0756 27.4817 2.91507 27.418 2.81494C27.4293 2.87924 27.4472 2.94585 27.4914 2.99649C27.5609 3.08149 27.6785 3.08821 27.7439 2.99523C27.7545 2.98199 27.7645 2.96875 27.7735 2.95457C27.7596 2.96392 27.7453 2.97201 27.7306 2.9801H27.7303V2.97978L27.7302 2.97968Z" fill="white"/>
<path id="Vector_67" d="M27.1506 3.82465C27.1137 3.85112 27.0672 3.88674 27.0191 3.86888C26.948 3.834 26.9061 3.74743 26.8789 3.67725C26.8579 3.8424 27.0124 4.04234 27.1535 3.85365C27.1668 3.83558 27.1767 3.81519 27.1851 3.79418C27.1741 3.80448 27.1628 3.81456 27.1508 3.8236L27.1505 3.82454L27.1506 3.82465Z" fill="white"/>
<path id="Vector_68" d="M20.7909 0.938513C20.6483 0.952696 20.5115 0.995982 20.3804 1.05124C20.369 1.05807 20.3173 1.06995 20.3412 1.08487C20.3445 1.08455 20.3474 1.0836 20.3508 1.08255C20.3514 1.08255 20.3514 1.08318 20.3521 1.0835C20.5408 1.04893 20.7245 0.996297 20.9071 0.938408C20.9167 0.935466 20.9257 0.932629 20.9353 0.929688C20.8868 0.930318 20.8386 0.932944 20.7905 0.938093H20.7908V0.938408L20.7909 0.938513Z" fill="#FF6B00"/>
<path id="Vector_69" d="M19.0696 6.10156C19.0374 6.38229 19.0341 6.66606 18.9404 6.93618C19.1795 6.67184 19.1712 6.42148 19.0696 6.10156Z" fill="#FF6B00"/>
<path id="Vector_70" d="M15.3681 7.26312C15.2884 7.12223 15.2214 6.9742 15.1419 6.8331C15.0386 6.65113 14.9257 6.46738 14.8935 6.2583C14.8074 6.65439 15.0516 7.04438 15.3453 7.30063C15.3704 7.32164 15.3961 7.34234 15.4223 7.36198C15.404 7.32899 15.3854 7.29611 15.3675 7.2628H15.3678L15.3681 7.26312Z" fill="#FF6B00"/>
<path id="Vector_71" d="M11.5819 10.5008C11.4816 10.579 11.3905 10.6711 11.2793 10.7344C11.4414 10.7095 11.5919 10.6262 11.7211 10.5301C11.8474 10.4274 11.9367 10.2894 12.0078 10.147C11.8689 10.2687 11.7251 10.3841 11.5819 10.501V10.5007V10.5008Z" fill="#FF6B00"/>
<path id="Vector_72" d="M27.4365 3.78626C27.4853 3.75853 27.5402 3.67448 27.577 3.60986C27.5113 3.65157 27.4655 3.71619 27.4365 3.78626Z" fill="#FF6B00"/>
<path id="Vector_73" d="M18.9258 1.19396C19.05 1.20174 19.1732 1.16843 19.2881 1.12357C19.163 1.12231 19.0426 1.15268 18.9258 1.19396Z" fill="#FF6B00"/>
<path id="Vector_74" d="M15.4102 10.2265C15.5667 10.2301 15.7214 10.1994 15.8652 10.1409C15.7087 10.1376 15.5529 10.1638 15.4102 10.2265Z" fill="#FF6B00"/>
<path id="Vector_75" d="M14.665 2.76704C14.7946 2.71829 14.9198 2.69307 15.051 2.62646C14.9165 2.64716 14.769 2.67784 14.665 2.76704Z" fill="#FF6B00"/>
<path id="Vector_76" d="M9.28709 11.7136C9.28709 11.7472 9.28104 11.7743 9.2994 11.7246C9.33191 11.6457 9.37576 11.5507 9.41334 11.4606C9.44023 11.3999 9.46119 11.3346 9.50741 11.2842C9.35988 11.372 9.29486 11.5524 9.28719 11.7136H9.28709Z" fill="white"/>
<path id="Vector_77" d="M11.1842 7.43506C11.2333 7.59948 11.1928 7.7701 11.1523 7.93232C11.2762 7.78723 11.3134 7.58887 11.1842 7.43506Z" fill="white"/>
<path id="Vector_78" d="M9.78664 3.42835C9.71223 3.38632 9.64019 3.33043 9.55476 3.31299C9.42689 3.31236 9.51783 3.46712 9.5458 3.5269C9.58727 3.60506 9.63145 3.68197 9.66838 3.76245C9.66503 3.64352 9.62788 3.52952 9.58306 3.41963C9.57842 3.40671 9.57183 3.39441 9.56708 3.38149C9.61492 3.38601 9.68134 3.41217 9.73016 3.41763C9.74906 3.4212 9.76807 3.42478 9.78729 3.42793H9.78697L9.78664 3.42824V3.42835Z" fill="white"/>
<path id="Vector_79" d="M15.6872 4.09131C15.6679 4.26645 15.6586 4.44253 15.6367 4.61736C15.7327 4.45714 15.7321 4.26676 15.6872 4.09131Z" fill="white"/>
<path id="Vector_80" d="M14.1118 9.8802C14.0567 9.96226 14.0204 10.0566 14.0215 10.1558C14.066 10.0698 14.0989 9.99882 14.1142 9.89985C14.1148 9.88819 14.1258 9.85394 14.1111 9.88041H14.1115L14.1118 9.8801V9.8802Z" fill="white"/>
<path id="Vector_81" d="M20.5391 4.64551C20.5687 4.745 20.6098 4.84092 20.6679 4.92792C20.6484 4.82516 20.6065 4.72725 20.5391 4.64551Z" fill="white"/>
<path id="Vector_82" d="M12.5108 8.83819C12.5111 8.82947 12.5115 8.82043 12.5118 8.81202C12.5108 8.81465 12.5101 8.81717 12.5088 8.82011C12.5051 8.77683 12.5012 8.73323 12.4979 8.68994C12.4966 8.69677 12.4948 8.70349 12.4935 8.71032C12.4689 8.83755 12.4556 8.94619 12.4394 9.05535C12.4348 9.07573 12.4295 9.09538 12.4248 9.11576C12.4112 9.19172 12.378 9.28796 12.3485 9.36655C12.3346 9.39271 12.3206 9.41887 12.307 9.44503C12.22 9.61208 12.1588 9.65988 11.9898 9.74908C11.8792 9.79688 11.7875 9.86118 11.6689 9.87473C11.6842 9.87799 11.6995 9.87957 11.7151 9.88062C11.7064 9.88324 11.6981 9.88545 11.6891 9.88776C11.7839 9.89459 11.8775 9.8719 11.9692 9.85088C12.0535 9.83208 12.1396 9.81275 12.2156 9.77072C12.3016 9.71231 12.3831 9.63603 12.4236 9.54063C12.4518 9.46667 12.4668 9.3884 12.4867 9.31223C12.5003 9.24341 12.503 9.17323 12.5047 9.10347C12.5056 9.09727 12.507 9.09149 12.5077 9.08508C12.5203 9.00334 12.5176 8.92129 12.5114 8.83955L12.511 8.83829L12.5108 8.83819Z" fill="white"/>
<path id="Vector_83" d="M5.86667 11.614C5.44644 11.7187 5.04457 11.7222 4.59182 11.7348C4.18358 11.7501 3.77566 11.7878 3.36914 11.8298C4.21252 11.9539 5.1044 12.0253 5.90026 11.633C5.94012 11.615 5.97997 11.5965 6.01917 11.5771C5.9683 11.5901 5.91722 11.602 5.86603 11.6137H5.86635L5.86667 11.614Z" fill="white"/>
<path id="Vector_84" d="M1.9848 10.3602C1.84591 10.4474 1.70875 10.5392 1.58455 10.6462C1.49318 10.7257 1.40754 10.8109 1.31152 10.8853C1.57893 10.776 1.79645 10.579 1.98815 10.3722C2.0117 10.3451 2.032 10.3292 1.98448 10.3605H1.9848V10.3602Z" fill="white"/>
<path id="Vector_85" d="M4.67283 7.44678C4.45391 7.54176 4.28283 7.71816 4.14265 7.90328C4.12342 7.93112 4.10474 7.95917 4.08789 7.98828C4.11575 7.96043 4.14373 7.93396 4.17321 7.90811C4.32733 7.77952 4.48652 7.65806 4.66483 7.55952C4.8668 7.45739 5.08204 7.37282 5.30258 7.31787C5.08831 7.31945 4.87079 7.36694 4.67315 7.44647L4.67283 7.44678Z" fill="white"/>
<path id="Vector_86" d="M4.61352 8.54165C4.52744 8.50866 4.43315 8.47956 4.33952 8.48702C4.42354 8.50383 4.49828 8.55132 4.56934 8.59628C4.63944 8.63894 4.69754 8.71196 4.67497 8.81471C4.65337 8.92839 4.58392 9.02284 4.51653 9.12233C4.41695 9.26417 4.31554 9.40506 4.21326 9.545C4.20127 9.56181 4.18875 9.5783 4.17676 9.5948C4.29437 9.50171 4.40928 9.40548 4.51523 9.29978C4.63112 9.1757 4.76169 9.04616 4.79226 8.87491C4.82552 8.73791 4.75543 8.58641 4.61319 8.54176H4.61352V8.54165Z" fill="#FF6B00"/>
</g>
</g>
</g>
</g>
</g>
<defs>
<clipPath id="clip0_6387_2">
<rect width="1920" height="1080" fill="white" transform="translate(-25 -28)"/>
</clipPath>
<clipPath id="clip1_6387_2">
<rect width="29" height="15" fill="white"/>
</clipPath>
</defs>
</svg>
